<svg id="Layer_1" data-name="Layer 1" xmlns="http://www.w3.org/2000/svg" width="205.2" height="98.63" viewBox="0 0 205.2 98.63"><title>logo</title><path d="M56.73,72.62a21.36,21.36,0,0,0,0-42.5v42.5" style="fill:#a40044"/><path d="M52.68,72.62V30.11a21.36,21.36,0,0,0,0,42.5" style="fill:#006b8d"/><polyline points="0.08 28.9 22.27 28.9 22.27 34.87 6.85 34.87 6.85 47.3 22.01 47.3 22.01 53.27 6.85 53.27 6.85 71.48 0.08 71.48 0.08 28.9" style="fill:#1a171b"/><path d="M86.58,28.9h12c6.65,0,10.13.92,12.36,2.48,3.52,2.3,5.62,6.71,5.62,11.5A13.86,13.86,0,0,1,114.22,51c-2.19,3.07-4.93,4.1-8.21,4.66l10,15.83h-7.16L97.1,52.25h1.53c2.92,0,6.49-.13,8.5-1.85a9.12,9.12,0,0,0,3-7,8.61,8.61,0,0,0-3.67-7.17c-1.83-1.16-4.17-1.4-7.24-1.4H93.36V71.48H86.58V28.9" style="fill:#1a171b"/><path d="M128.56,28.9V55.47c0,2.65,0,4.94,1.6,7.41a7.49,7.49,0,0,0,6.55,3.41A7.33,7.33,0,0,0,143.16,63c1.57-2.44,1.57-4.77,1.57-7.54V28.9h6.78V55.47c0,5.66-.91,10-4.65,13.09a14.68,14.68,0,0,1-10.13,3.7c-3,0-7.38-.85-10.29-3.68-4.18-3.7-4.67-7.93-4.65-13.11V28.9h6.77" style="fill:#1a171b"/><polyline points="159.64 71.48 159.64 28.9 168.92 28.9 182.15 61.89 195.24 28.9 204.51 28.9 204.51 71.48 198.44 71.48 198.41 35.57 184.29 71.48 179.88 71.48 165.75 35.57 165.71 71.48 159.64 71.48" style="fill:#1a171b"/><path d="M7.92,95.57l0-9H9.72V98.4H8l-6.2-9,0,9H0V86.56H1.78Z" style="fill:#006b8d"/><path d="M29,86.56V94A3.51,3.51,0,0,0,29.45,96a2.11,2.11,0,0,0,1.83.94A2,2,0,0,0,33.07,96a3.43,3.43,0,0,0,.45-2.1V86.56h1.87V94c0,1.57-.24,2.77-1.28,3.63a4.08,4.08,0,0,1-2.82,1A4,4,0,0,1,27.13,94V86.56H29Z" style="fill:#006b8d"/><path d="M64,94.8a5.87,5.87,0,0,1-5.62,3.83,6.15,6.15,0,1,1,0-12.29A6,6,0,0,1,64,90.22H62A4.19,4.19,0,0,0,58.37,88a4.49,4.49,0,0,0,0,9A4.25,4.25,0,0,0,62,94.8h2Z" style="fill:#006b8d"/><path d="M80.8,86.56h1.89V96.74h4.18V98.4H80.8V86.56Z" style="fill:#006b8d"/><path d="M103.17,86.56h6.63v1.67h-4.74v3.36h4.67v1.65h-4.67v3.5h4.74V98.4h-6.63V86.56Z" style="fill:#006b8d"/><path d="M128,98.4h-2l4.87-11.84h1.71l4.79,11.84h-2l-1.12-2.8H129.1Zm3.6-9.65-2,5.33h4Z" style="fill:#006b8d"/><path d="M153.67,86.56h1.89V98.4h-1.89V86.56Z" style="fill:#006b8d"/><path d="M173,86.56h3.35a6,6,0,0,1,3.44.69,3.8,3.8,0,0,1,1.57,3.2,4,4,0,0,1-.67,2.26,3.22,3.22,0,0,1-2.29,1.3l2.79,4.4h-2l-3.25-5.35h0.42a3.83,3.83,0,0,0,2.37-.51,2.52,2.52,0,0,0,.82-1.94,2.43,2.43,0,0,0-1-2,3.76,3.76,0,0,0-2-.38h-1.62V98.4H173V86.56Z" style="fill:#006b8d"/><path d="M198.06,86.56h6.63v1.67h-4.74v3.36h4.67v1.65h-4.67v3.5h4.74V98.4h-6.63V86.56Z" style="fill:#006b8d"/><path d="M7.92,9.24l0-9H9.72V12.07H8L1.79,3l0,9H0V0.22H1.78Z" style="fill:#006b8d"/><path d="M32.43,0.22V7.62a3.51,3.51,0,0,0,.43,2.07,2.11,2.11,0,0,0,1.83.94,2,2,0,0,0,1.79-.91,3.43,3.43,0,0,0,.45-2.1V0.22H38.8V7.62c0,1.57-.24,2.77-1.28,3.63a4.08,4.08,0,0,1-2.82,1,4.22,4.22,0,0,1-2.87-1,4.23,4.23,0,0,1-1.3-3.65V0.22h1.89Z" style="fill:#006b8d"/><path d="M70.84,8.47a5.87,5.87,0,0,1-5.62,3.83A6.11,6.11,0,0,1,59,6.13,6.13,6.13,0,0,1,70.86,3.89h-2a4.19,4.19,0,0,0-3.67-2.22,4.32,4.32,0,0,0-4.27,4.47,4.33,4.33,0,0,0,4.29,4.5,4.25,4.25,0,0,0,3.65-2.16h2Z" style="fill:#006b8d"/><path d="M91,0.22h1.89V10.4H97.1v1.67H91V0.22Z" style="fill:#006b8d"/><path d="M116.81,0.22h6.63V1.89H118.7V5.25h4.67V6.9H118.7v3.5h4.74v1.67h-6.63V0.22Z" style="fill:#006b8d"/><path d="M145.06,12.07h-2l4.87-11.84h1.71l4.79,11.84h-2l-1.12-2.8h-5.06Zm3.6-9.65-2,5.33h4Z" style="fill:#006b8d"/><path d="M174.13,0.22H176V12.07h-1.89V0.22Z" style="fill:#006b8d"/><path d="M196.84,0.22h3.35a6,6,0,0,1,3.44.69,3.8,3.8,0,0,1,1.57,3.2,4,4,0,0,1-.67,2.26,3.22,3.22,0,0,1-2.29,1.3l2.79,4.4h-2l-3.25-5.35h0.42a3.83,3.83,0,0,0,2.37-.51,2.52,2.52,0,0,0,.82-1.94,2.43,2.43,0,0,0-1-2,3.76,3.76,0,0,0-2-.38h-1.62V12.07h-1.89V0.22Z" style="fill:#006b8d"/></svg>