<svg id="Layer_2" data-name="Layer 2" xmlns="http://www.w3.org/2000/svg" xmlns:xlink="http://www.w3.org/1999/xlink" width="5.44cm" height="5.44cm" viewBox="0 0 154.15 154.15"><defs><clipPath id="clip-path"><rect width="7.93" height="7.93" style="fill:none"/></clipPath><clipPath id="clip-path-2"><circle cx="77.14" cy="77.25" r="75.28" style="fill:none"/></clipPath><pattern id="New_Pattern_Swatch_3" data-name="New Pattern Swatch 3" width="7.93" height="7.93" patternTransform="translate(-57.27 31.39) scale(1.01)" patternUnits="userSpaceOnUse" viewBox="0 0 7.93 7.93"><rect width="7.93" height="7.93" style="fill:none"/><circle cx="7.93" cy="7.93" r="0.59" style="fill:#f9f9f9"/><circle cx="3.97" cy="7.93" r="0.59" style="fill:#f9f9f9"/><circle cy="7.93" r="0.59" style="fill:#f9f9f9"/><circle cx="7.93" cy="7.93" r="0.59" style="fill:#f9f9f9"/><circle cx="7.93" cy="3.96" r="0.59" style="fill:#f9f9f9"/><circle cx="7.93" cy="7.93" r="0.59" style="fill:#1c1c1c"/><circle cx="3.97" cy="7.93" r="0.59" style="fill:#1c1c1c"/><circle cx="7.93" cy="3.96" r="0.59" style="fill:#1c1c1c"/><circle cx="3.97" cy="3.96" r="0.59" style="fill:#1c1c1c"/><circle cy="7.93" r="0.59" style="fill:#f9f9f9"/><circle cy="3.96" r="0.59" style="fill:#f9f9f9"/><circle cx="7.93" r="0.59" style="fill:#f9f9f9"/><circle cx="3.97" r="0.59" style="fill:#f9f9f9"/><g style="clip-path:url(#clip-path)"><circle r="0.59" style="fill:#f9f9f9"/></g><circle cy="7.93" r="0.59" style="fill:#1c1c1c"/><circle cy="3.96" r="0.59" style="fill:#1c1c1c"/><circle r="0.59" style="fill:#f9f9f9"/><circle cx="7.93" r="0.59" style="fill:#f9f9f9"/><circle cx="7.93" r="0.59" style="fill:#1c1c1c"/><circle cx="3.97" r="0.59" style="fill:#1c1c1c"/><circle r="0.59" style="fill:#f9f9f9"/><circle r="0.59" style="fill:#1c1c1c"/><circle cx="1.98" cy="5.95" r="0.59" style="fill:#1c1c1c"/><circle cx="5.95" cy="5.95" r="0.59" style="fill:#1c1c1c"/><circle cx="1.98" cy="1.98" r="0.59" style="fill:#1c1c1c"/><circle cx="5.95" cy="1.98" r="0.59" style="fill:#1c1c1c"/></pattern></defs><title>perimeter</title><circle cx="77.07" cy="77.07" r="77.07" style="fill:#dedddd"/><g style="clip-path:url(#clip-path-2)"><rect x="-47.78" y="-6.17" width="211.98" height="183.43" style="fill:#a1dbe8"/><path d="M-26.44,196.49c-0.31.66-.74,0.88-1,1.54a2.8,2.8,0,0,1-.28,1.12,2.79,2.79,0,0,1-1.12.28,1.83,1.83,0,0,0-1.26,1.68c0,0.28.56,0.14,0.56,0.42,0,0.81-.7,1.16-0.7,2s0.84,1,.84,1.82a2.76,2.76,0,0,1-.28.56A3,3,0,0,1-29.8,207c-0.35.52-1.4,0.32-1.4,1,0,1.26,1.12,1.82,1.12,3.08,0,1.05-1.09,1.3-1.68,2.1-0.38.52-.56,1.26-1.26,1.26-0.45,0-.66-0.42-1.12-0.42-1.23,0-2,1.29-2,2.52-2.07,0-3.25,1-4.76,2.38a3.94,3.94,0,0,1-.84,1,2.53,2.53,0,0,1-1.12-.14A5.42,5.42,0,0,1-43.93,222l-0.28-.56a9.63,9.63,0,0,0-1.54.84h0c-0.88.07-1.36-.07-2.24,0-0.28,0-.28.42-0.56,0.42-0.56,0-.59-0.81-1.12-1s-0.73,0-1.12-.14a7.2,7.2,0,0,0-2.24-.7c-1.85,0-2.69,1.19-4.48,1.68a3,3,0,0,1-.59.28,4,4,0,0,0-.66,0c0-.66.39-1.16,0-1.68a1.71,1.71,0,0,1-.7-0.8V218l-0.84-.7h0a3.16,3.16,0,0,1,.7-1.68,11.78,11.78,0,0,0,1.12-.7,1.4,1.4,0,0,0,.14-0.56,5.2,5.2,0,0,0,.28-2c0-.8-0.56-1.23-0.84-2a6.15,6.15,0,0,1,2.24-.42V208.9c0-.77-0.42-1.15-0.42-1.92,0-.32.28-0.49,0.28-0.8v-3.39a4,4,0,0,0-.42-0.56c-0.18-.11-0.39,0-0.56-0.14A4.5,4.5,0,0,1-60,199.56a2.76,2.76,0,0,0-.28-1.12,3,3,0,0,0-1.12-.28,1.15,1.15,0,0,1-.42-0.56,1.73,1.73,0,0,1-.56-1.12c0-1.23.87-1.78,1.26-2.94a5.75,5.75,0,0,1-2.94-2.8c-0.56-1.23-.6-2.27-1.54-3.22-0.7-.7-1.5-0.77-2.24-1.4a4.17,4.17,0,0,0-.7-1c-0.77-.35-1.4,0-2.24-0.14a1.17,1.17,0,0,1-1.12-1,1.73,1.73,0,0,1,.42-1.4c0.14-.11.38,0,0.56-0.14a2.8,2.8,0,0,0,1-.84c0.39-.59.32-1.22,0.84-1.68a6.42,6.42,0,0,1,1.12-.56,2.81,2.81,0,0,1,1.4-.7,2.62,2.62,0,0,1,2,1c0.8-.8.73-1.68,1.26-2.66a8.8,8.8,0,0,1,1.26-1.54c0.17-.21.42-0.21,0.56-0.42,0.45-.63.52-1.37,1.26-1.68,0.17-.07.38,0.07,0.56,0A6.17,6.17,0,0,0-58,172v-2.84c0-.63.11-1,0.07-1.65a3.77,3.77,0,0,1-2.1-.84c-0.56-.63-0.21-1.36-0.28-2.24,0-.24-0.28-0.32-0.28-0.56,0-1.43,1.82-1.78,1.82-3.22,0-.66-0.42-1-0.42-1.68a1.2,1.2,0,0,1,.56-0.42c0.56-.84,1.05-1.26,1.54-2.1A5.87,5.87,0,0,0-56,153.1a4.4,4.4,0,0,0-.84-2.24A5.22,5.22,0,0,0-59,148.49h0c1.61-1.61,2.66-2.14,3.5-4.2,0.7-1.68.66-3.08,2.1-4.2a5.46,5.46,0,0,0,.84-1.12,5.38,5.38,0,0,0,1.4-3.22c0.24-2,1.26-3,1.26-5,0-1.12-.56-1.68-0.56-2.8a15.09,15.09,0,0,1,.7-3.92h0a5.36,5.36,0,0,0,3.22-2.24c0.49-.84.77-1.44,1.26-2.24a1.33,1.33,0,0,0,.49-0.59V115.1c2.31,0,3.6-.07,5.91-0.07a1.07,1.07,0,0,1,.87,0,3.68,3.68,0,0,1,.56,1.68c0.35,1,.42,1.78.84,2.8,0.25,0.59.45,1.26,1.12,1.26,0.95,0,1.36-.56,2.24-0.84,1.68-.56,2.8-0.49,4.48-1,1-.28,1.47-1.12,2.52-1.12a5,5,0,0,1,1.4.42,10.8,10.8,0,0,1,2.24.84,3,3,0,0,0,.28-0.56c0-.56-0.28-0.84-0.28-1.4,0-1.23-.28-2.59.84-3.08a6.73,6.73,0,0,1,1.68-.14,1,1,0,0,0,.42-0.56,11.08,11.08,0,0,0,1.12-2.24c0.63-1,1.61-1.12,2.66-1.68,1.4-.73,2.31-1.4,3.92-1.4a14,14,0,0,1,1.68.28c0.67,0.07,1.16-.35,1.68,0a2,2,0,0,1,.56,1.12,9.86,9.86,0,0,1,.7,3.92A2.42,2.42,0,0,0-7.13,115a4.19,4.19,0,0,0,1.12.42,2.26,2.26,0,0,1,.84,1,3.94,3.94,0,0,0,.42,1.12c0.7,0.77,2.24.59,2.24,1.68s-0.56,1.85-.56,3.08c0,1.54.59,2.38,0.84,3.92h0c-0.63.25-.91,0.07-1.54,0.28-1.12.42-1.61,1-2.8,1.12-0.42,0-.74,0-1.12,0a18.58,18.58,0,0,1-3.36.7,2.46,2.46,0,0,0-.28.7c0,1,.84,1.4.84,2.38a0.82,0.82,0,0,1-.84.56,9.49,9.49,0,0,0-2.24.28c-0.77.35-.7,1.19-1,2-0.18.52-.73,0.63-1,1.12a15.25,15.25,0,0,0-.84,2.8,10.23,10.23,0,0,0-1,3.64,8.76,8.76,0,0,0,.56,2.52c0.24,0.95.56,1.85,1.54,2.1a15.33,15.33,0,0,0,4.2.28c1,0,1.57-.28,2.55-0.28,1.3,0,2,.07,3.32.07v3.32c0,1.33.7,2,.7,3.33,0,1-1,1.29-1.68,2.1a1.19,1.19,0,0,0-.56.42,3.35,3.35,0,0,0,.42,1.12,11.12,11.12,0,0,1,.56,3.89c0,0.49-.1.73-0.14,1.23-0.77,0-1.19,0-2,0a3.48,3.48,0,0,0,1,2.31c0.32,0.25.8,0,1.12,0.28,1.05,0.81.35,2.07,0.56,3.36,0.17,1-.11,1.89.42,2.8,0.81,1.36,1.93,1.64,3.08,2.8h0a4,4,0,0,0,.14,1.12c0.32,1.19,1.68,1.54,1.68,2.8a2.54,2.54,0,0,1-.56.84h0a15.45,15.45,0,0,1-1.68,1.68,4,4,0,0,1-3.11,1.68H-6.36v-2.66c-0.46,0-.7-0.14-1.15-0.14-0.73,0-1.12.28-1.85,0.28-0.42,0-.7-0.28-1.12-0.28-0.84,0-1,1.12-1.82,1.12-0.6,0-.77-0.53-1.26-0.84a2.53,2.53,0,0,1-.56,0c-0.52-.66-0.1-1.5-0.56-2.24a1.19,1.19,0,0,0-.28-0.56c-0.53-.39-1.05,0-1.68-0.14a9.81,9.81,0,0,0-1.4-.42c-0.56,0-.53.7-0.84,1.12a13.12,13.12,0,0,0-2,2.66c-0.31.63-.49,1.08-0.84,1.68a1.19,1.19,0,0,1-.84.84c-0.81,0-1.16-.56-2-0.56-0.63,0-.74.66-1.12,1.12a11.65,11.65,0,0,0-1.26,1.68A22.52,22.52,0,0,0-28,186.41c1,0.42,2.24.7,2.24,1.82,0,1.75-2.1,2.17-2.1,3.92a2.29,2.29,0,0,0,.7,1,7.29,7.29,0,0,1,.7,3.36h0Z" style="fill:#fff"/><path d="M-1.67,173.4a8.16,8.16,0,0,0,2.8-3.08H3.89c0.59,0,.77-0.56,1.15-1,0.87-.95,1.4-1.72,2.66-2,0.63-.1,1.15.35,1.68,0a2.17,2.17,0,0,0,.14-0.56,2.91,2.91,0,0,1,1-1,12.46,12.46,0,0,1,2.8-.56c1-.25,1.4-1,2-2,0.38-.66,1.12-0.91,1.12-1.68,0-1-.7-1.5-0.7-2.52a2.82,2.82,0,0,1,.28-2,2.91,2.91,0,0,1,1.68-.7c1.12-.42,1.61-1.12,2.8-1.12s1.71,0.59,2.8.84a4.49,4.49,0,0,1,1.68.28c0.42,0.25.45,1,1,1A4.3,4.3,0,0,0,27,157a5.46,5.46,0,0,1,1.68-.14,8.27,8.27,0,0,1,2.8.28c1.3,0.38,1.33,1.89,2.52,2.52,0.94,0.49,1.75.25,2.8,0.42a9.68,9.68,0,0,0,1.75.42c1.26,0,1.89-.84,3.15-0.84,0.7,0,1,.56,1.68.56,1.44,0,2.91-.28,4.34-0.42h0c-1.19-1.19-1.19-3.15-2.8-3.64a11.73,11.73,0,0,0-2.24-.14c-1-.1-1.47-1-2.52-1a8.6,8.6,0,0,0-1.4.14,2.9,2.9,0,0,1-.56.28c-0.73,0-1.05-.52-1.68-0.84A3,3,0,0,1,34.72,153a12.77,12.77,0,0,0-.7-2.24,5.82,5.82,0,0,0-1.4-1.68,0.9,0.9,0,0,1-.56-0.42c0-1,.73-1.58,1.12-2.52s0.42-1.43.84-2.24,1.12-1.09,1.12-2c0-.59-0.56-0.81-0.56-1.4,0-.77.7-1,1.12-1.68A17.77,17.77,0,0,0,37,136.59a3.75,3.75,0,0,0,.7-1.68c0-.7-0.87-0.7-1.54-0.84a15.51,15.51,0,0,0-2.8-.56,5.92,5.92,0,0,1-2.24-.28,1.09,1.09,0,0,1-.84-0.84,10.21,10.21,0,0,1,.28-1.12c0.24-1.5.35-2.41,0.7-3.91,0.14-.56.7-0.81,0.7-1.4a3.2,3.2,0,0,0-.14-0.84,3.42,3.42,0,0,1-.42-0.56,2.42,2.42,0,0,1,.7-1.12,36.92,36.92,0,0,1,2-3.22,4.75,4.75,0,0,1-1.68-.84,1.52,1.52,0,0,1-1-1c0-1.75,1.43-2.31,2.1-3.92h0c-1.47-.49-2.62-0.11-4.06-0.56-0.66-.21-1-0.8-1.68-1s-1.37.56-2.24,0.42H24.64a2.69,2.69,0,0,0-.56-1.68c-0.45-.42-1.23,0-1.68-0.42a2.65,2.65,0,0,1-.28-1.12,4.68,4.68,0,0,0-.84-1.68,7.62,7.62,0,0,0-1.68-1,6.11,6.11,0,0,1-1.26-1.68,14.55,14.55,0,0,1-1.54,3.36,2,2,0,0,1-.56.28,3.15,3.15,0,0,1-2.27.84c-0.88,0-1.33-.07-2.21-0.07,0,0.49-.14.81-0.14,1.3,0,1.54.42,2.41,0.42,4a3.42,3.42,0,0,1-.28.63H9c0.17,1.68.56,3.36-.84,4.27a7.23,7.23,0,0,1-3.92,1.4,8.89,8.89,0,0,1,0,1.68,2.59,2.59,0,0,1-.84,1.12,1.54,1.54,0,0,1-1.26.84,3.14,3.14,0,0,1-1.4-.28,3.17,3.17,0,0,0-1.12-.7c-0.77,0-1.4,1.23-1.82,1.82h0c-0.63.25-.91,0.07-1.54,0.28-1.12.42-1.61,1-2.8,1.12-0.42,0-.74,0-1.12,0a18.58,18.58,0,0,1-3.36.7,2.46,2.46,0,0,0-.28.7c0,1,.84,1.4.84,2.38a0.82,0.82,0,0,1-.84.56,9.49,9.49,0,0,0-2.24.28c-0.77.35-.7,1.19-1,2-0.18.52-.73,0.63-1,1.12a15.25,15.25,0,0,0-.84,2.8,10.23,10.23,0,0,0-1,3.64,8.76,8.76,0,0,0,.56,2.52c0.24,0.95.56,1.85,1.54,2.1a15.33,15.33,0,0,0,4.2.28c1,0,1.57-.28,2.55-0.28,1.3,0,2,.07,3.32.07v3.32c0,1.33.7,2,.7,3.33,0,1-1,1.29-1.68,2.1a1.19,1.19,0,0,0-.56.42,3.35,3.35,0,0,0,.42,1.12,11.12,11.12,0,0,1,.56,3.89c0,0.49-.1.73-0.14,1.23-0.77,0-1.19,0-2,0a3.48,3.48,0,0,0,1,2.31c0.32,0.25.8,0,1.12,0.28,1.05,0.81.35,2.07,0.56,3.36,0.17,1-.11,1.89.42,2.8,0.81,1.36,1.93,1.64,3.08,2.8h0Z" style="fill:#fff"/><path d="M-26,40.72c0,0.53.28,0.84,0.28,1.36,0,1.86-.1,2.94,0,4.8,1.61-.56,2-1.79,3.39-2.8,0.67,1,1.54,1.57,1.54,2.8s-1.54,1.29-2.24,2.24-0.45,1.72-.42,2.8a2.68,2.68,0,0,1-.7,2.24c-0.49.49-1.05,0.28-1.68,0.56a3.24,3.24,0,0,0-1,1v1.54c0.42,0,.66.14,1.08,0.14,0.77,0,1-.66,1.72-1a15.79,15.79,0,0,1,3.92-1.54,10.9,10.9,0,0,0,2.8-.7c1.15-.52,1.54-1.36,2.66-2a4,4,0,0,0,1.68-1,11.14,11.14,0,0,0,1.68-3.92c0.84-2.38,1.57-3.71,2.38-6.16l-0.14-.84h-8.12a6.69,6.69,0,0,1-.14-0.81,2.69,2.69,0,0,1,.42-1.15c0.7-1.47,1.64-2.07,2.8-3.22a5.28,5.28,0,0,0,1.4-3.5c0.28-1.75.21-2.91,0.56-4.62a11.58,11.58,0,0,0,.56-2.66c0-.32-0.42-0.39-0.7-0.42a2.77,2.77,0,0,0-1.68.14,1.66,1.66,0,0,0-1,.84,8.89,8.89,0,0,0-.14,1.68c-0.31,1.26-1.47,1.68-2.66,2.1a3,3,0,0,0-1.4,1.4c-1.54,2.14-3.11,3-4.2,5.46-0.28.66-.32,1.15-0.56,1.82-0.53,1.43-2.1,1.82-2.1,3.36h0ZM-56.69,109.4h0c2-.66,3.35-0.7,5.48-1.22,2-1.47,3.85-1.54,6.16-2.38a12.24,12.24,0,0,0,3.36-2c1.68-1.25,2.9-1.57,4.48-2.94s2.38-2.52,4.34-2.52c0.66,0,1,.28,1.68.28a9.28,9.28,0,0,0,1.68-.42A6.76,6.76,0,0,0-27.84,98a18.54,18.54,0,0,0,5-3.5c1-.84,1.82-1.12,2.8-2a17.87,17.87,0,0,1,3.36-2.1,13,13,0,0,0,3.22-2.66,12.8,12.8,0,0,1,1.12-.84,16.77,16.77,0,0,0,2.94-3.36c0.77-1.08,1.57-1.47,2.24-2.66,0.94-1.68,1.26-2.77,2.1-4.48s2.17-2.1,3.22-3.64S0,70.53.43,68.85c0.14-.63.1-1,0.28-1.68,0.7-2.48,1.29-3.92,1.82-6.43,0.28-1.44.53-2.52,1.68-3.36C5,56.75,5.71,56.54,6.59,56s1.43-.8,2.24-1.4c1.33-1,1.75-2.14,3.22-2.94a18.78,18.78,0,0,1,2.24-1.12C18,49,20.58,48.91,23.94,46.6a33.36,33.36,0,0,0,3.22-2.66c1.72-1.47,3.11-2.1,4.2-4.06A23,23,0,0,0,33,36.53a10.36,10.36,0,0,1,.7-1.82,6.17,6.17,0,0,0,1.12-2.24A32.08,32.08,0,0,0,35.14,28c0.1-1.3.42-2,.42-3.32V21.1c0-2.34,1.15-3.5,2.24-5.56C39,13.3,38.88,11.69,40,9.37c0.12-.24.22-0.47,0.31-0.69h0a7.85,7.85,0,0,0,1.51,1.53A11,11,0,0,0,43,10.5c0.87,0.35,1.36.91,2.24,1.26a22.16,22.16,0,0,0,2.24.56c0.66,0.18,1.33.11,1.68,0.7a2.45,2.45,0,0,1,0,1.12c0.17,1.54.7,2.38,0.7,3.92,0,0.35-.42.49-0.42,0.84,0,0.6.49,0.77,0.84,1.26a2.3,2.3,0,0,1,.14,1.54,25.11,25.11,0,0,1,2.8.42,6.88,6.88,0,0,1,2.24.28c0.94,0.49,1.19,1.26,1.82,2.1s1.54,1.57,1.54,2.8a1.44,1.44,0,0,1-.56.56c-0.11.17-.18,0.35-0.28,0.56a4.81,4.81,0,0,1-2.66,2.52c-1.36.59-2.13,1.4-3.64,1.4a10.67,10.67,0,0,0-2.8-.07l-1.26,7.07a1.61,1.61,0,0,1,.84,1A3.35,3.35,0,0,1,48,41.42a3.09,3.09,0,0,1-.42,1.12,5.63,5.63,0,0,0-1,.84,11.87,11.87,0,0,0-.42,2.24,15.88,15.88,0,0,0-.84,5.6,2,2,0,0,0,.7,1.68c0.35,0.28.77,0.28,1.12,0.56a5.13,5.13,0,0,0,1,1c0.56,0.28,1.15-.21,1.68.14,0.35,0.25.17,0.77,0.42,1.12a7.75,7.75,0,0,0,1,.84h0c-0.91,1-1.26,1.68-2.24,2.66-0.38.39-.73,0.45-1.12,0.84-0.87.87-.87,1.89-1.68,2.8-0.14.17-.45,0.1-0.56,0.28a5.21,5.21,0,0,0-.28,1.12,4.17,4.17,0,0,1-1.26,1.54c-0.35.31-.59,0.66-1,1-0.7.56-1.68,0.77-1.68,1.68A29.68,29.68,0,0,0,42,72.35c0.1,0.88-.25,1.47.14,2.24,0.1,0.24.45,0.18,0.56,0.42A2.39,2.39,0,0,1,43,76.13a0.73,0.73,0,0,1-.84.56c-0.7,0-1-.56-1.68-0.56-1,0-1.5.84-2.52,0.84-0.7,0-1-.56-1.68-0.56a3,3,0,0,0-.56.28,15.42,15.42,0,0,1-2.24.28,2.91,2.91,0,0,1,.42,1.09v1.43a6.78,6.78,0,0,0-2.8.14,7.5,7.5,0,0,1-2.24,1c-1.08.11-1.71,0-2.8,0.14-0.87.11-2.1,0-2.1,0.84,0,0.35.28,0.49,0.28,0.84,0,0.56.28,1.4-.28,1.4,0.59,0.07,1.4.11,1.4,0.7a9.08,9.08,0,0,1-.42,1.68c-0.21,1.3-.42,2-0.56,3.36-0.21,1.89-2,2.59-2,4.48a2.71,2.71,0,0,0,.28.56c0.1,0.63.07,1,.14,1.68,1,0,1.93-.32,2.52.42s0.28,1.54.28,2.52a3.75,3.75,0,0,1,0,1.4c-0.07.25-.49,0.18-0.56,0.42a3,3,0,0,0,0,.56,12,12,0,0,0,.42,2.24,4.11,4.11,0,0,0,.14,1.12c0.25,0.66,1,.94,1,1.68a7.25,7.25,0,0,1-.56,1.68,12.19,12.19,0,0,0,0,2.24,6.1,6.1,0,0,1-.42,1.12,8.81,8.81,0,0,0-.14,1.68H24.64a2.69,2.69,0,0,0-.56-1.68c-0.45-.42-1.23,0-1.68-0.42a2.65,2.65,0,0,1-.28-1.12,4.68,4.68,0,0,0-.84-1.68,7.62,7.62,0,0,0-1.68-1,6.11,6.11,0,0,1-1.26-1.68,14.55,14.55,0,0,1-1.54,3.36,2,2,0,0,1-.56.28,3.15,3.15,0,0,1-2.27.84c-0.88,0-1.33-.07-2.21-0.07,0,0.49-.14.81-0.14,1.3,0,1.54.42,2.41,0.42,4a3.42,3.42,0,0,1-.28.63H9c0.17,1.68.56,3.36-.84,4.27a7.23,7.23,0,0,1-3.92,1.4,8.89,8.89,0,0,1,0,1.68,2.59,2.59,0,0,1-.84,1.12,1.54,1.54,0,0,1-1.26.84,3.14,3.14,0,0,1-1.4-.28,3.17,3.17,0,0,0-1.12-.7c-0.77,0-1.4,1.23-1.82,1.82h0c-0.25-1.54-.84-2.38-0.84-3.92,0-1.23.56-1.85,0.56-3.08s-1.54-.91-2.24-1.68a3.94,3.94,0,0,1-.42-1.12,2.26,2.26,0,0,0-.84-1A4.19,4.19,0,0,1-7.13,115a2.42,2.42,0,0,1-.28-1.68,9.86,9.86,0,0,0-.7-3.92,2,2,0,0,0-.56-1.12c-0.52-.35-1,0.07-1.68,0A14,14,0,0,0-12,108c-1.61,0-2.52.66-3.92,1.4-1,.56-2,0.63-2.66,1.68a11.08,11.08,0,0,1-1.12,2.24,1,1,0,0,1-.42.56,6.73,6.73,0,0,0-1.68.14c-1.12.49-.84,1.85-0.84,3.08,0,0.56.28,0.84,0.28,1.4a3,3,0,0,1-.28.56,10.8,10.8,0,0,0-2.24-.84,5,5,0,0,0-1.4-.42c-1,0-1.54.84-2.52,1.12-1.68.49-2.8,0.42-4.48,1-0.87.28-1.29,0.84-2.24,0.84-0.66,0-.87-0.66-1.12-1.26-0.42-1-.49-1.75-0.84-2.8a3.68,3.68,0,0,0-.56-1.68,1.07,1.07,0,0,0-.87,0c-2.31,0-3.6.11-5.91,0.07v3.82a1.33,1.33,0,0,1-.49.59c-0.49.8-.77,1.4-1.26,2.24A5.36,5.36,0,0,1-49.81,124h0c-0.14-.63-0.11-1-0.28-1.68-0.39-1.36-1-2-1.4-3.36-0.66-2.07-.49-3.39-0.84-5.6a3.43,3.43,0,0,1-2.8-1.12,4.31,4.31,0,0,1-.42-1.12A13.52,13.52,0,0,0-56.69,109.4Z" style="fill:#fff"/><path d="M92.37-12.31a1.77,1.77,0,0,0,.14,1c0.56,0.81,1.65.63,2.24,1.4s0.14,1.54.14,2.52A2.07,2.07,0,0,0,95-6c0.42,0.52,1,.32,1.68.56-0.42,1.33-1.08,2-1.26,3.36A16,16,0,0,0,95.59.14c0,1.33-.59,2.07-1.26,3.22H92.1l-0.42.42c1,1,1,2,1.26,3.36a10.63,10.63,0,0,1,.28,1.12c0,0.77-.42,1.19-0.42,2s0.63,1.16.7,2-0.24,1.16.14,1.68a3,3,0,0,0,1.12.56A2.17,2.17,0,0,1,95,15v1a1,1,0,0,1,0,.56,9.49,9.49,0,0,0-1.12.7,3,3,0,0,0-.14,1.12,7.36,7.36,0,0,1-.42,1.12c-0.59,1.47-2.24,1.89-2.24,3.5,0,0.35.28,0.49,0.28,0.84a1.19,1.19,0,0,1-.84.84,4,4,0,0,0-1.4,1.12c-0.7,1-1.4,1.68-1.4,2.94s0.56,1.68.56,2.8a7,7,0,0,1-1,3.92,9.13,9.13,0,0,0-1.12,1.54c-0.11.39,0.07,0.73,0,1.12a2.45,2.45,0,0,1-.7,1,4,4,0,0,1-2.1,1.12c-0.53.14-.59,0.66-1.12,0.84a8.77,8.77,0,0,1-1.68.28,8,8,0,0,0-2.24,1,6.33,6.33,0,0,1,.7,2.52,11.24,11.24,0,0,1-.42,2.1h0a29.87,29.87,0,0,1-.28,3.92c0,0.42-.28.66-0.28,1.08,0,1.33-.14,2.1-0.14,3.43,0,0.42,0,.66,0,1.09a2.62,2.62,0,0,1,1.26,1c-1.15,1.54-1.75,3-3.64,3.5a17.33,17.33,0,0,1-2,0,2.18,2.18,0,0,0-1.26,1c-0.14.14,0,.56-0.28,0.56a5.41,5.41,0,0,1-1.68-.28c-0.52-.14-0.56-0.77-1-1.12-0.94-.81-1.57-1.54-2.8-1.54a2.19,2.19,0,0,0-.56.42,5.19,5.19,0,0,1-2.24.7c-0.49,0-.49-0.7-0.7-1.12-0.42-.84-0.53-1.43-1-2.24a1.39,1.39,0,0,0-1.12-1c-1.05,0-1.33,1.4-2.38,1.4-0.74,0-.94-0.84-1.68-0.84s-1,.56-1.68.56-0.77-.84-1.4-1.12A3,3,0,0,0,52.77,56a2.26,2.26,0,0,0-1.54.56h0a7.75,7.75,0,0,1-1-.84c-0.25-.35-0.07-0.87-0.42-1.12-0.53-.35-1.12.14-1.68-0.14a5.13,5.13,0,0,1-1-1c-0.35-.28-0.77-0.28-1.12-0.56a2,2,0,0,1-.7-1.68,15.88,15.88,0,0,1,.84-5.6,11.87,11.87,0,0,1,.42-2.24,5.63,5.63,0,0,1,1-.84A3.09,3.09,0,0,0,48,41.42a3.35,3.35,0,0,0,.42-1.12,1.61,1.61,0,0,0-.84-1l1.26-7.07a10.67,10.67,0,0,1,2.8.07c1.5,0,2.27-.8,3.64-1.4a4.81,4.81,0,0,0,2.66-2.52c0.11-.21.18-0.39,0.28-0.56a1.44,1.44,0,0,0,.56-0.56c0-1.23-.81-1.82-1.54-2.8s-0.87-1.61-1.82-2.1a6.88,6.88,0,0,0-2.24-.28,25.11,25.11,0,0,0-2.8-.42,2.3,2.3,0,0,0-.14-1.54c-0.35-.49-0.84-0.66-0.84-1.26,0-.35.42-0.49,0.42-0.84,0-1.54-.53-2.38-0.7-3.92a2.45,2.45,0,0,0,0-1.12c-0.35-.59-1-0.52-1.68-0.7a22.16,22.16,0,0,1-2.24-.56c-0.88-.35-1.37-0.91-2.24-1.26a11,11,0,0,1-1.12-.28,7.85,7.85,0,0,1-1.51-1.53h0a34.41,34.41,0,0,1,1.37-3.51C42.34,4,42.87,3.39,43.53,2.24a8.38,8.38,0,0,1,2.1-2.8c0.84-.66,1.44-1,2.24-1.68,1.05-.91,2.13-1,2.8-2.24,1.08-2,1-3.47,1.68-5.6,0.49-1.5.87-2.34,1.26-3.92,0.59-2.48,1.5-3.78,2.38-6.16s0.73-3.85,1.12-6.3a7.8,7.8,0,0,1,.34-1.36h0c0.87,0,1.27-.18,2.14-0.18,1.44,0,2.24.7,3.67,0.7,0.49,0,.53-0.7,1-0.84s0.73,0.07,1.12,0a2.32,2.32,0,0,0,1.12-1,15.46,15.46,0,0,1,1,3.64c0.88,0,1.57-.39,2.24.14,0.35,0.28.07,0.84,0.42,1.12a2.39,2.39,0,0,0,1.12,0c0.56,0.14.81,0.7,1.4,0.7a0.9,0.9,0,0,0,.42-0.56,4,4,0,0,1,1.12.7,2.91,2.91,0,0,0,.7,1c0.59,0.28,1-.07,1.68,0a5.36,5.36,0,0,1,1.68.42,2.81,2.81,0,0,0,1.12.56c0.46,0,.52-0.7,1-0.7,1.22,0,1.92.56,3.15,0.56v1.89a7.1,7.1,0,0,0,1.19.21c0.42,0,.7-0.28,1.12-0.28a1.68,1.68,0,0,1,1.54.84c0.7,1.08.35,2.13,0.84,3.36A2.16,2.16,0,0,0,90-14.27a2.84,2.84,0,0,1,1.12.14,4.27,4.27,0,0,1,1.26,1.82h0Z" style="fill:#fff"/><circle cx="75.85" cy="30.06" r="2.56" style="fill:#fff"/><circle cx="12.59" cy="58.3" r="2.56" style="fill:#fff"/><circle cx="14.86" cy="130.92" r="2.56" style="fill:#fff"/><circle cx="51.24" cy="141.2" r="2.56" style="fill:#fff"/><circle cx="83.85" cy="63.13" r="2.56" style="fill:#fff"/><path d="M-1.71,173.35a8.16,8.16,0,0,0,2.8-3.08H3.85c0.59,0,.77-0.56,1.15-1,0.87-.95,1.4-1.72,2.66-2,0.63-.1,1.15.35,1.68,0a2.17,2.17,0,0,0,.14-0.56,2.91,2.91,0,0,1,1-1,12.46,12.46,0,0,1,2.8-.56c1-.25,1.4-1,2-2,0.38-.66,1.12-0.91,1.12-1.68,0-1-.7-1.5-0.7-2.52a2.82,2.82,0,0,1,.28-2,2.91,2.91,0,0,1,1.68-.7c1.12-.42,1.61-1.12,2.8-1.12s1.71,0.59,2.8.84a4.49,4.49,0,0,1,1.68.28c0.42,0.25.45,1,1,1A4.3,4.3,0,0,0,27,157a5.46,5.46,0,0,1,1.68-.14,8.27,8.27,0,0,1,2.8.28c1.3,0.38,1.33,1.89,2.52,2.52,0.94,0.49,1.75.25,2.8,0.42a9.68,9.68,0,0,0,1.75.42c1.26,0,1.89-.84,3.15-0.84,0.7,0,1,.56,1.68.56,1.44,0,2.91-.28,4.34-0.42h0c-1.19-1.19-1.19-3.15-2.8-3.64a11.73,11.73,0,0,0-2.24-.14c-1-.1-1.47-1-2.52-1a8.6,8.6,0,0,0-1.4.14,2.9,2.9,0,0,1-.56.28c-0.73,0-1.05-.52-1.68-0.84a3,3,0,0,1-1.82-1.68,12.77,12.77,0,0,0-.7-2.24,5.82,5.82,0,0,0-1.4-1.68,0.9,0.9,0,0,1-.56-0.42c0-1,.73-1.58,1.12-2.52s0.42-1.43.84-2.24,1.12-1.09,1.12-2c0-.59-0.56-0.81-0.56-1.4,0-.77.7-1,1.12-1.68a17.77,17.77,0,0,0,1.26-2.24,3.75,3.75,0,0,0,.7-1.68c0-.7-0.87-0.7-1.54-0.84a15.51,15.51,0,0,0-2.8-.56,5.92,5.92,0,0,1-2.24-.28,1.09,1.09,0,0,1-.84-0.84,10.21,10.21,0,0,1,.28-1.12c0.24-1.5.35-2.41,0.7-3.91,0.14-.56.7-0.81,0.7-1.4a3.2,3.2,0,0,0-.14-0.84,3.42,3.42,0,0,1-.42-0.56,2.42,2.42,0,0,1,.7-1.12,36.92,36.92,0,0,1,2-3.22,4.75,4.75,0,0,1-1.68-.84,1.52,1.52,0,0,1-1-1c0-1.75,1.43-2.31,2.1-3.92h0c-1.47-.49-2.62-0.11-4.06-0.56-0.66-.21-1-0.8-1.68-1s-1.37.56-2.24,0.42H24.6a2.69,2.69,0,0,0-.56-1.68c-0.45-.42-1.23,0-1.68-0.42a2.65,2.65,0,0,1-.28-1.12,4.68,4.68,0,0,0-.84-1.68,7.62,7.62,0,0,0-1.68-1,6.11,6.11,0,0,1-1.26-1.68,14.55,14.55,0,0,1-1.54,3.36,2,2,0,0,1-.56.28,3.15,3.15,0,0,1-2.27.84c-0.88,0-1.33-.07-2.21-0.07,0,0.49-.14.81-0.14,1.3,0,1.54.42,2.41,0.42,4a3.42,3.42,0,0,1-.28.63H8.93c0.17,1.68.56,3.36-.84,4.27a7.23,7.23,0,0,1-3.92,1.4,8.89,8.89,0,0,1,0,1.68,2.59,2.59,0,0,1-.84,1.12,1.54,1.54,0,0,1-1.26.84,3.14,3.14,0,0,1-1.4-.28,3.17,3.17,0,0,0-1.12-.7c-0.77,0-1.4,1.23-1.82,1.82h0c-0.63.25-.91,0.07-1.54,0.28-1.12.42-1.61,1-2.8,1.12-0.42,0-.74,0-1.12,0a18.58,18.58,0,0,1-3.36.7,2.46,2.46,0,0,0-.28.7c0,1,.84,1.4.84,2.38a0.82,0.82,0,0,1-.84.56,9.49,9.49,0,0,0-2.24.28c-0.77.35-.7,1.19-1,2-0.18.52-.73,0.63-1,1.12a15.25,15.25,0,0,0-.84,2.8,10.23,10.23,0,0,0-1,3.64,8.76,8.76,0,0,0,.56,2.52c0.24,0.95.56,1.85,1.54,2.1a15.33,15.33,0,0,0,4.2.28c1,0,1.57-.28,2.55-0.28,1.3,0,2,.07,3.32.07v3.32c0,1.33.7,2,.7,3.33,0,1-1,1.29-1.68,2.1a1.19,1.19,0,0,0-.56.42,3.35,3.35,0,0,0,.42,1.12,11.12,11.12,0,0,1,.56,3.89c0,0.49-.1.73-0.14,1.23-0.77,0-1.19,0-2,0a3.48,3.48,0,0,0,1,2.31c0.32,0.25.8,0,1.12,0.28,1.05,0.81.35,2.07,0.56,3.36,0.17,1-.11,1.89.42,2.8,0.81,1.36,1.93,1.64,3.08,2.8h0Z" style="fill:#fff"/><path d="M33.42,114.43c-0.66,1.61-2.1,2.17-2.1,3.92a1.52,1.52,0,0,0,1,1,4.75,4.75,0,0,0,1.68.84,36.92,36.92,0,0,0-2,3.22,2.42,2.42,0,0,0-.7,1.12,3.42,3.42,0,0,0,.42.56,3.2,3.2,0,0,1,.14.84c0,0.59-.56.84-0.7,1.4-0.35,1.5-.45,2.41-0.7,3.91a10.21,10.21,0,0,0-.28,1.12,1.09,1.09,0,0,0,.84.84,5.92,5.92,0,0,0,2.24.28,15.51,15.51,0,0,1,2.8.56c0.66,0.14,1.54.14,1.54,0.84a3.75,3.75,0,0,1-.7,1.68,17.77,17.77,0,0,1-1.26,2.24c-0.42.63-1.12,0.91-1.12,1.68,0,0.59.56,0.81,0.56,1.4,0,0.87-.73,1.19-1.12,2s-0.49,1.4-.84,2.24S32,147.53,32,148.57a0.9,0.9,0,0,0,.56.42,5.82,5.82,0,0,1,1.4,1.68,12.77,12.77,0,0,1,.7,2.24,3,3,0,0,0,1.82,1.68c0.63,0.32.95,0.84,1.68,0.84a2.9,2.9,0,0,0,.56-0.28,8.6,8.6,0,0,1,1.4-.14c1.05,0,1.47.87,2.52,1a11.73,11.73,0,0,1,2.24.14c1.61,0.49,1.61,2.45,2.8,3.64h0a9.6,9.6,0,0,0,2.8-.56A9.14,9.14,0,0,0,55,157.53a16.46,16.46,0,0,0,1.4-1.68c0.77-.77,1.4-1.05,2.1-1.82a2.73,2.73,0,0,1,.28-0.56,4.12,4.12,0,0,1,1.12-.42,4.15,4.15,0,0,0,1.12-.7c0.77-.77.77-1.68,1.68-2.24s1.71-.39,2.8-0.42a4.09,4.09,0,0,0,2.24-.56c0.42-.25.56-0.7,1-1,0.59-.42,1.08-0.42,1.68-0.84s0.67-1.26,1.4-1.26,0.94,1,1.68,1c0.91,0,.88-1.19,1-2.1,0.14-1.19.73-1.75,1.26-2.8a10.56,10.56,0,0,0,.56-1.68,9.52,9.52,0,0,0,1-3.5c0-1.29-.53-2.07-0.42-3.36a4.91,4.91,0,0,0-.7-2.8,2.42,2.42,0,0,1-.56-1.12c0-.63.8-0.7,1.4-0.84a11.9,11.9,0,0,1,2.24-.28v-1.12c-0.38-.66-0.7-1-1.12-1.68a2.26,2.26,0,0,1-.7-1.12c0-.94.42-1.43,0.42-2.38,0-1.33-.77-2-0.77-3.36,0-.88.28-1.37,0.21-2.24s-0.28-1.19-.28-2a1.35,1.35,0,0,1,.14-0.84h0c-0.53-2.1.25-3.57-.42-5.6a1.64,1.64,0,0,0-.56-1.12c-0.56-.35-1.19.11-1.68-0.28a2.81,2.81,0,0,1-.56-1.12,13,13,0,0,0-1.68-2.24c-0.14-.17-0.14-0.38-0.28-0.56a4.14,4.14,0,0,0-1.68-1.11,11.73,11.73,0,0,0-3.92-1.12c-2.45-.38-3.67-1.54-6.16-1.54a6.84,6.84,0,0,0-4.48,1.4c-1.19.84-1.09,2.14-1.26,3.64a13.54,13.54,0,0,0-3.36.56,10.85,10.85,0,0,1-1.68.7,13.68,13.68,0,0,0-1.68.14,8.11,8.11,0,0,0-1.68,1,7.78,7.78,0,0,0-1.4,1.4,1.36,1.36,0,0,1-.42.56c-0.63.11-1.12-.31-1.68,0a11.25,11.25,0,0,0-.84,1,6.59,6.59,0,0,1-1.12.56,11.67,11.67,0,0,1-2.24,1.26l-1.12-.28c-1.4,1.4-2.06,2.45-3.78,3.36h0Z" style="fill:#fff"/><path d="M32.62,66.09c1.22,0,5.48,1.83,5.48,1.83l7.52-16.74L37.8,48.72l-6.4,17.36" style="fill:#fff"/><text transform="translate(36.28 70.46) rotate(-69.99)" style="font-size:6.094989776611328px;fill:#a31c49;font-family:ITC Avant Garde Gothic Std">5<tspan x="3.71" y="0">0</tspan><tspan x="7.47" y="0">k</tspan><tspan x="10.69" y="0">m</tspan></text><g id="g8"><g id="g82"><g id="a84"><g id="use86"><path id="_04000" data-name="04000" d="M26-13.29V-13l1.44,2.88L26.34-8.4v2.88l2,0.86h0.58l3.74,2.59H35l0.58-1.15L37-2.64h0.29l1.15,0.58v-2l1.73-1.15,3.46,2.88h2v0.29L48.8-1.49,47.94,0l0.58,3.46L50,5.14l0.29,0.29,4-1.15L58,4l1.15-.86L59.46,2l2,2L63.2,4.27l1.73-1.15L65.5,3.41l0.86,2,2,0.58,1.73-.86,3.46,2L73,9.17l0.29,0.29,0.58,2.88-1.44,2.3,1.73,4.61v0.29l2.3,0.29,1.44,2.88,2.3-1.15,3.46,0.86,1.73,1.15,1.44-.86L82.5,20.4l0.58-.58L83.36,19l1.44,0.58,6,0.86,1.73-.58v-6L92,12.63l0.86-.86,0.58-1.15-0.58-4,0.29-.29,4.61-1.73V5.43h1.73l0.58,0.86,1.15-.58L99.49-8.4l0.86-4.9H26Z" style="fill:#fff"/></g></g><g id="a88"><g id="use90"><path id="_06000" data-name="06000" d="M-45.37-13.29v4.61l-1.44.29L-47.1-7l0.58,0.86-0.86,1.44,0.86,0.86L-47.1-.91l-1.73,3.74,0.29,3.46,1.15,2,1.73,1.15L-45.37,10l2.88,3.17,3.17-1.44L-38.46,12l1.15,2.88,0.58,0.58,1.15,1.44,2.88-.86,2-.58,1.15,1.44,1.73,2.59,2.3-1.44L-22,16.37l2.3,2.3,2.3-.29,2.88-.29,0.58-.86V16.08h0.86l2,1.73L-10.53,19l0.29,1.73,2,4.32,1.44,1.15,0.58-.29h0.58l4-1.15L0.13,23l1.73,2.88,0.29,0.29h2L5.89,29l1.73,0.58L10.5,29l0.86-2,1.15-.58L17.12,27l3.46,0.86h0.86l2.3-3.17,2-1.73,0.86-2.59,2-1.44-2.3-2-1.15-.29-0.58-2,0.58-7.49L24.61,3.7l0.29-.86,1.44-2.3-0.86-4.9,0.86-1.15V-8.4l1.15-1.73L26-13v-0.29H-45.37Z" style="fill:#f9f9fa"/></g></g><g id="a92"><g id="use94"><path id="_08000" data-name="08000" d="M79.62,173.33V173l2.88-6.91,2-4L88,160.94l-1.44-4-0.86.58v-0.86l-1.44-1.15-0.58.58-0.29-.29-2.88-1.15-3.17.29-2.59-2H74.43l-4-2-2,.58-2.59-.86-1.15-2-0.29-.29-2-3.74-2,1.15L60,149.14l0.86,0.29,2.3,5.76-2.88,1.44-3.46.58-0.29.86-0.86,1.44-2.3,2.88-2.3.86v1.15l-0.86.86-2,1.73-0.86-1.44-2-2.88-0.86.58-1.15-.58-0.86-1.44-2.88-.29-1.44-.58-1.44-6.62-2.88-.58-2-1.44-0.86-2.3-3.74-3.17-1.44.58-0.86-.29-1.73,1.73,0.58,6.62-0.29,3.46,1.15,2.59,0.58,5.18-0.29,1.73-1.15.29L24,169l-0.29.58,0.86,0.86L24,171.89l1.15,1.44H79.62Z" style="fill:#fff"/></g></g><g id="a96"><g id="use98"><path id="_09000" data-name="09000" d="M24.93,172.58l-1.15-1.44,0.58-1.44-0.86-.86,0.29-.58-0.29-.86,1.15-.29,0.29-1.73-0.58-5.18-1.15-2.59,0.29-3.46-0.58-6.62,1.73-1.73-2.59-1.73,0.29-1.73,0.86-.86-0.86-1.73,0.86-1.44L21.77,136l0.58-1.44h0.86l-0.29-2.3-3.17.86-2.3-.58-0.29-1.44-0.86-3.74V126.5l-2.3-.86-2.59-3.17v-0.29L10,120.45l-1.15.29-1.15-1.15-2.59-1.73-4.32-.29-1.15-.86-2.88-1.44-6.62-.86-0.58-.29v-0.58h-3.46l-1.44.58-2-.58-4.32.86-1.73,1.44-2.3.58-1.44,1.73-0.58.86,0.86,4.61-3.74-.86-1.73-.29-1.15,1.73L-35,125.63l-4.9.58L-41,127.36h-3.17L-45,130l-4.61,1.15-0.86,2.3-1.44.29h-2.88l-0.58,1.73L-58,136.58l-2.3,2h-1.44l-3.46,1.73-0.86-.86-2.3.58H-69l-0.58,2.3-1.15.86-1.44.86-0.29,2.3h-2.88l-1.73,2.3,0.29,1.15-2,.86-0.86,2.3-1.15.86-0.58-.29v2.59l-0.86.86,4,2.59,2.3,0.58,0.58,0.58-2,2,0.29,0.58-1.73.86L-79,166.82l-1.44.58-1.15,1.15L-81.91,170l0.58,2,1.44,0.58H24.93Z" style="fill:#e6e6e5;stroke:#010101;stroke-linejoin:round;stroke-width:0.14399748000257px"/></g></g><g id="a108"><g id="use110"><path id="_07201" data-name="07201" d="M21.44,27.89l0.86,1.73-1.44.58-0.29,2,0.86,2-0.58,3.46L21.44,38l4.9,2.3,0.29,2.3v0.58L33.54,42l4.32-.29L43,42.87l7.2-1.15-0.58,1.44,1.15,1.15V43.44h1.44l-0.58,1.73,0.58,0.58,0.86-.86,0.86-2-2.3-3.46,2-.29,2.88-4.9L56,33.07H53.7l1.15-1.44,2,1.15,0.86-4L60,25.59l-1.15-.86L57.15,25l-2.3.29L54.27,23l0.86-2.3L53.7,20.4l0.58-1.15L53.41,19,52,17.81l-1.73.29,0.58-2H49.66L48.8,14.35V13.2H50l-2.59-2.3L47.07,9.17,48.8,5.71,50,5.14,48.51,3.41,47.94,0,48.8-1.49l-3.17-.58V-2.35h-2L40.16-5.23,38.43-4.08v2l-1.15-.58H37l-1.44-.58L35-2.06h-2.3L28.93-4.65H28.35l-2-.86L25.47-4.37l0.86,4.9L24.9,2.83l-0.29.86,0.58,3.46-0.58,7.49,0.58,2,1.15,0.29,2.3,2-2,1.44L25.76,23l-2,1.73" style="fill:#fff"/></g></g><g id="a116"><g id="use118"><path id="_07203" data-name="07203" d="M27.78,87.22l10.08-.58v1.44l0.29,1.15,6.91,2.88h1.73l3.74,2.3,2.88,0.86,1.73,2.3,1.15,0.29,2.59-1.15-0.29-2,0.29-3.46L59.46,91,58.3,89.52l-1.73-2,2.59-4.32-1.44-.86-2-2.3-1.44-.29L51.39,80l-0.86,2.3H49.38L50,80.88l-0.86-1.44-0.86.86-2-.29-0.86-1.44,1.15,0.29V77.14l-1.44-.58H44.77V75.41l-1.15-.29,0.29,1.15H43.33L43.62,74l2,0.58,0.86-1.73,1.44,0.86,0.86-.29,0.58-1.73-1.15-1.15,0.58-2,1.44-1.15-0.86-.86-0.29-.58-2.59.86V65.9l-1.15.58-2-.58-0.58.58L41.31,65,39,66.77l-2.3,1.44-3.46-1.44L33,68.5l-2-1.44,0.58-.86-0.58-3.46V61l-1.73-.29-2.59-8.06,0.86-6.34-0.29-.86-2.3,2.88-3.17,2.3,0.29,2-1.15,2.59-1.44.58-0.86-1.15-2,1.15-0.86,1.73-2.3,2.59L16,62.45l-0.29,2,1.44,1.73-0.58,1.44,0.86,1.15-0.58,2.3-1.73.29-0.58-1.44-2-.86L2,61.41l-2.25,8.25L1,75.12-0.45,80.3l0.86,3.17-2,4,4.32,2.88,1.73-.86,2,0.58,0.86-.29,0.29-1.15,1.73-.58,2.3,0.29,2.59-2,1.15-3.17L16,82.32l1.15,2.3h2.59l0.58,2,2.3,1.44Z" style="fill:#fff"/></g></g><g id="a120" style="opacity:0.63"><g id="use122"><path id="_07204" data-name="07204" d="M63.78,134.45v1.44l-2.59,1.73L60,138.77l2,3.17,0.29,2.59,2,3.74,0.29,0.29,1.15,2,2.59,0.86,2-.58,4,2h0.29l2.59,2,3.17-.29,2.88,1.15L83.65,156l0.58-.58,1.44,1.15v0.86l0.86-.58-0.29-2L87.39,152l2-2.3,2-.29,0.86,0.29L93.73,148l1.15,0.58-0.29-.86h1.15L96,146l0.58,0.86,1.73-2,1.73-.58,0.29,0.58,1.44,0.86,2.88-3.46,2.3-2v-1.73l0.86-1.15,0.58-.58L107.26,133l0.29-5.76,2.59-7.78,0.86-4.32-0.58-1.73v-4l-4.9-.58-5.76-3.17-1.15-1.73-2.88.29-0.58-1.73L96,101.33l-1.44-2.88L96,95.86l-2.3.58-0.58,2.3H92.29l-0.86-.58-1.15,1.15-2.88.58-0.58-1.15-1.44-1.15,1.15-2.3-2-1.73-2-.86-2,.58L79,91.82l-1.15-2-0.58.29-2.59.58-0.29,3.74-0.29.29,0.58,1.44-1.15,1.44-0.29,4.61-1.73,1.15-1.44.29-4,3.17-0.58-.29-1.15.86-0.29,3.17,1.15,2.88,1.44,2.3L67.52,114l0.86,2,2.88,6.62,0.29,0.86-1.44.58,0.58,1.44-2,1.15L69,128.4l-2,.58v1.44l-0.86,4h-2.3Zm33.7,14.4,1.15-3.17,1.44-.58-1.44.58Z" style="fill:#86c140"/></g></g><g id="a124"><g id="use126"><path id="_07205" data-name="07205" d="M11.65,122.93v0.29l2.59,3.17,2.3,0.86v0.86l0.86,3.74,0.29,1.44,2.3,0.58,3.17-.86,0.29,2.3,1.73,1.44,0.58-2,2.59-.86h2.59V130.7l1.73-1.44,2.3,0.58,0.29-.86L35,127.54h1.44l-1.15-1.73,1.15-.29,1.15-.58,3.74-3.74,0.86-.58-0.58-.86L39,118.32l-1.73.58H37l-1.15.58-2.3-.58-3.74-.29-1.44-.29-0.29-2-1.44.29-1.44-1.15,1.44-2-0.29-1.15-2-.58-2.88-1.44L24,108.82l4,0.29,1.15-1.44-0.86-1.44-1.73-1.73-2,.29-6-1.44L15.39,101l-2.59.29L7.33,98.74,5.6,99.89v1.44l3.74,4,1.15,2.3,0.58-1.73,2.3,1.73,2.59,2-0.29,1.44,2.88,1.15L18,116l-1.15.86-2,.86,1.44,1.15-0.86.86-0.86.29,0.58,1.15-2,.58,0.29,0.86v0.58l-1.15-.86Z" style="fill:#fff"/></g></g><g id="a128"><g id="use130"><path id="_07207" data-name="07207" d="M36.13,100.18l3.17,0.58L43,101.62l0.29,0.86,0.29,0.86L50,103.92l0.58-.29v-3.46h2l1.73-.86,0.29-1.15,1.73-.29-1.15-.29-1.73-2.3-2.88-.86-3.74-2.3H45.06l-6.91-2.88-0.29-1.15V86.64l-10.08.58-5.18.86-2.3-1.44-0.58-2H17.12L16,82.32l-0.58.86-1.15,3.17-2.59,2-2.3-.29-1.73.58L7.33,89.81l-0.86.29v0.29L6.75,91l5.18,4,5.18,2.59L18.27,97l0.29,0.86,5.18,1.44L30.08,101l0.86-.29,1.44-.86,0.29-1.73h0.58l0.29-2.3,4,1.15,0.86,0.86L37.28,99.6Z" style="fill:#fff"/></g></g><g id="a136"><g id="use138"><path id="_07209" data-name="07209" d="M86.82,26.74l2.88,0.58,1.44,2,1.44-.58,2.3-1.15,3.74,0.58,0.86-.29,1.15,0.86,1.44-1.15,3.74,0.86,4.9,2.59-0.29-4.32-2-2.59-0.58-5.76v-2l-1.15-1.15,0.58,0.58-0.86.29,1.15,0.58-0.29,4.61v1.44l-2-1.44,0.86-4-2.59-.29,0.58-.58,2,0.29,0.29-.86L105,14.35l-0.29.86V13.49l-4.61.86-3.46-.86-4,.29v6l-1.73.58-6-.86L83.36,19l-0.29.86-0.58.58,4.32,2.3-1.44.86-1.73-1.15-3.46-.86-2.3,1.15-1.44-2.88-2.3-.29v0.29l-1.73,2L73,24.15l2.3,1.73L79,24.43v1.73L78.18,27l0.29,0.29L81.06,27l1.73-1.73Z" style="fill:#fff"/></g></g><g id="a140"><g id="use142"><path id="_07210" data-name="07210" d="M73.57,56.69L72.13,55l1.15-2.88-0.86-.86L71,50.93l-3.46,2L67.23,49.2l-1.44-1.73-4-.58-1.44-2-2-3.17L55.14,44V42.29L54,42.87l-0.86,2-0.86.86-0.58-.58,0.58-1.73H50.82v0.86l-1.15-1.15,0.58-1.44L43,42.87l-5.18-1.15L33.54,42l-6.91,1.15,0.58,2.3,0.29,0.86,1.44,0.58,4.9,0.86-0.29,1.73,0.86,1.15L33,50.93l2.59,4.61,4.32-.86,2.59,3.46,0.86-.58,1.44-1.73,0.86,2.3,1.44-.29,1.15,1.73h1.44l0.86,0.86,0.58-.58,1.44,0.29v1.73L54,63.31l1.15,0.58,1.15-1.44h1.44l1.15,1.15,5.47-3.17h2l2.59-2,4-.29,0.29-.86Z" style="fill:#fff"/></g></g><g id="a144" style="opacity:0.63"><g id="use146"><path id="_07211" data-name="07211" d="M54.27,79.73L55.71,80l2,2.3,1.44,0.86h1.15l0.86,1.15,2.3,1.73,1.15-.58,3.74,1.44,0.86,2.59L67.81,92.4,69,95.86l1.15,0.58,1.73-2,2.3,0.29,0.29-.29,0.29-3.74,2.59-.58,0.58-.29-2.3-4.9,1.14-1.75v-1L77,79.73l1-1.07,0.49-1.24,4,2.88h2.3l0.86,1.15,3.74-.58,3.17,1.44,0.29-1.73L93.73,80V78.58l0.29-2-1.15-1.73-0.58-2.59L92,69.94l-1.15-.86-0.29-.86-1.44.58-1.44-1.15L86,68.21l-1.44-1.15-0.86.29-0.86-1.15-4.61-1.44-4-1.44,1.73-3.17-2-1.44L73,58.13l-4,.29-2.59,2h-2L58.88,63.6l0.58,1.15-0.58,2.3-1.73,1.73-0.58-1.44-1.73-.58,0.29,0.86-0.58,1.15,2.3,0.29-1.44.86-0.29-.58-0.58.58-1.15-2,0.29,0.86-1.15,1.15,2.59,1.15L54.56,74H54l0.29,1.73H52.83L54,77.42Z" style="fill:#86c140"/></g></g><g id="a148"><g id="use150"><path id="_07212" data-name="07212" d="M91.13,52.08L92,55.54l3.17,1.15,0.58,3.17,3.17,0.58,0.86,0.29,0.58-1.44,1.44-.29,4.61,1.73,3.17,1.44,3.17-.58,1.15-.29-1.15-13.82-1.15-7.78,1.73-.86-1.15.58-0.29-1.15,1.44-.29,0.86,1.15L113.31,38l-1.73.29-0.86-2.88V31.06l-4.9-2.59-3.74-.86-1.44,1.15-1.15-.86-0.86.29-3.74-.58-2.3,1.15-1.44.58,0.29,1.73L88.83,32.5l-1.15,1.15,1.73,0.86-0.86,2.88-0.29.86,1.15,0.58-0.58,2,0.86,2.3,0.58,1.44L89.69,46l-1.44.86,0.58,0.29,0.86,2,1.73,0.58Z" style="fill:#e6e6e5;stroke:#fff;stroke-linejoin:round;stroke-width:0.5px"/></g></g><g id="a152"><g id="use154"><path id="_07213" data-name="07213" d="M78.18,27L79,26.16V24.43L75.3,25.87,73,24.15l-0.58-2.3,1.73-2V19.25l-1.73-4.61,1.44-2.3L73.28,9.46,73,9.17l0.58-2-3.46-2L68.38,6l-2-.58-0.86-2-0.58-.29L63.2,4.27,61.76,8l0.58,2.59L61.18,9.46l-0.58,2-1.73.29,0.29,0.58L58.3,14.07l-1.73-.29-0.58,2-2.3-1.15-0.58,1.15-2.3.29-0.58,2L52,17.81,53.41,19l0.86,0.29L53.7,20.4l1.44,0.29L54.27,23l0.58,2.3,2.3-.29,1.73-.29L60,25.59l-2.3,3.17-0.86,4,0.29,0.58,1.44-.86h0.86L61.76,36l1.73-2,1.15-1.44,2,0.86,1.73-.86,2,1.73,0.86-1.73,1.73-4Z" style="fill:#fff"/></g></g><g id="a156"><g id="use158"><path id="_07214" data-name="07214" d="M54,63.31l-1.44-1.44V60.14l-1.44-.29-0.58.58-0.86-.86H48.22l-1.15-1.73-1.44.29-0.86-2.3-1.44,1.73-0.86.58L41,59.28l-2.3-.58L38.43,61l-5.18,1.44-2.3.29,0.58,3.46-0.58.86,2,1.44,0.29-1.73,3.46,1.44L39,66.77,41.31,65l1.44,1.44,0.58-.58,2,0.58,1.15-.58v0.86l2.59-.86,0.29,0.58,3.17-.29Z" style="fill:#fff"/></g></g><g id="a160"><g id="use162"><path id="_07301" data-name="07301" d="M48.8,5.71L47.07,9.17l0.29,1.73L50,13.2H48.8v1.15l0.86,1.73h1.15l2.3-.29,0.58-1.15L56,15.79l0.58-2,1.73,0.29,0.86-1.73-0.29-.58-2-.86L56.29,9.17l-3.17-.86L50.24,6V5.43L50,5.14Z" style="fill:#fff"/></g></g><g id="a164"><g id="use166"><path id="_07303" data-name="07303" d="M63.2,4.27L61.47,4l-2-2L59.17,3.12,58,4l-3.74.29-4,1.15V6l2.88,2.3,3.17,0.86,0.58,1.73,2,0.86,1.73-.29,0.58-2,1.15,1.15L61.76,8Z" style="fill:#fff"/></g></g><g id="a168"><g id="use170"><path id="_07308" data-name="07308" d="M77,48.91L74.72,48l-3.17-2.88L70.69,40l0.58-2-1.44-1.73-1.15.29V35.67l1.73-1.44-2-1.73-1.73.86-2-.86-1.15,1.44-1.73,2-2.3-3.46H58.59l-1.44.86-0.58,1.15v0.86l1.15,1.15-0.29,1.73h1.73l-0.58,1.15,1.15,1.15L58.3,41.71l2,3.17,1.44,2,4,0.58,1.44,1.73,0.29,3.74,3.46-2,1.44,0.29,0.86,0.86L72.13,55l1.44,1.73L75,53.23l0.29-.58,1.15,0.29,1.44-2Z" style="fill:#056b8d"/></g></g><g id="a172"><g id="use174"><path id="_07309" data-name="07309" d="M56.58,34.51l0.58-1.15-0.29-.58-2-1.15L53.7,33.07H56l0.58,1.15-2.88,4.9-2,.29L54,42.87l1.15-.58V44l3.17-2.3,1.44-1.15-1.15-1.15,0.58-1.15H57.44l0.29-1.73-1.15-1.15V34.51Z" style="fill:#fff"/></g></g><g id="a176"><g id="use178"><path id="_07322" data-name="07322" d="M26.62,52.66l2.59,8.06L30.94,61v1.73l2.3-.29L38.43,61l0.29-2.3L41,59.28l1.44-1.15-2.59-3.46-4.32.86L33,50.93l1.44-.29-0.86-1.15,0.29-1.73-4.9-.86-1.44-.58Z" style="fill:#fff"/></g></g><g id="a180"><g id="use182"><path id="_07342" data-name="07342" d="M39.3,100.75l-3.17-.58,1.15-.58,1.15-1.73L37.57,97l-4-1.15-0.29,2.3H32.67l-0.29,1.73-1.44.86-0.86,1.73,0.86,2.3,0.86,0.29,0.86-.86,1.44,0.58,1.15-1.15,1.44,0.86,2.3-.29h0.86Z" style="fill:#fff"/></g></g><g id="a184"><g id="use186"><path id="_07344" data-name="07344" d="M30.94,100.75l-0.86.29-6.34-1.73-5.18-1.44L18.27,97l-1.15.58L11.94,95,6.75,91l-0.29-.58V90.1l-2-.58-1.73.86L-1.6,87.5-3,86.93l-1.44,2.59-1.15.86-0.29,1.15L-9.09,97h-1.15l0.58,3.74-2.3,2.88,2,2.88,2,0.86L-6.21,108h2.3L1,106.22l0.58-.58,0.86,0.58v-2l1.44-.58,0.58-1.73-0.29-1.15,1.44,0.58V99.89l1.73-1.15,5.47,2.59,2.59-.29,3.17,2.3,6,1.44,2-.29,2.3-.58,0.29-1.44h0.86Z" style="fill:#fff"/></g></g><g id="a204"><g id="use206"><path id="_07402" data-name="07402" d="M-13.7,42l2.88-.29,4.32,2.88,0.86,0.58-0.29,3.17h1.73l4.32-1.15,2.3,1.15,2.88-5.47,5.76-3.74-0.58-2,0.86-2.59,1.44-.86L14,26.45H12.51L11.36,27,10.5,29l-2.88.58L5.89,29,4.16,26.16h-2l-0.29-.29L0.13,23-1.6,24.72l-4,1.15H-6.21l-0.58.29,0.29,1.15-0.29,2.59,0.86,1.15L-8.51,32.5l-1.15,2.59h-0.86L-12,37.39h-0.86L-16,41.14l-0.29,1.44Z" style="fill:#a91e22;stroke:#010101;stroke-linejoin:round;stroke-width:0.14399748000257px"/></g></g><g id="a212"><g id="use214"><path id="_07407" data-name="07407" d="M-0.16,54.39l-0.29-3.17,2.88-2V48.34l-2.3-1.15-4.32,1.15H-5.92L-8.8,48l-0.86,1.44-4.61,2.88H-14l2.88,1.73,0.29,1.44,3.17,0.58,0.29-.58,1.73,1.73,1.73,0.29V58.7l4-.58V57L-1.6,55.83-1,54.39h0.86Z" style="fill:#f15858;stroke:#010101;stroke-linejoin:round;stroke-width:0.14399748000257px"/></g></g><g id="a216"><g id="use218"><path id="_07408" data-name="07408" d="M-3.9,58.7l-0.29.58v1.15L-3,60.14l0.86,3.17,9.5,4.9,5.18,0.86,2,0.86,0.58,1.44,1.73-.29,0.58-2.3-0.86-1.15,0.58-1.44-1.44-1.73,0.29-2-2.59-2.3,2.3-2.59,0.86-1.73,2-1.15,0.86,1.15,1.44-.58L22,52.66l-0.29-2,3.17-2.3,2.3-2.88-0.58-2.3V42.58l-0.29-2.3L21.44,38l-0.58-.29,0.58-3.46-0.86-2,0.29-2,1.44-.58-0.86-1.73H20.58L17.12,27,14,26.45l-1.15,7.2-1.44.86L10.5,37.11l0.58,2L5.31,42.87,2.43,48.34V49.2l-2.88,2,0.29,3.17H-1L-1.6,55.83,0.13,57v1.15Z" style="fill:#fff"/></g></g><g id="a248"><g id="use250"><path id="_07461" data-name="07461" d="M-0.16,117.46L1,118.32l4.32,0.29,2.59,1.73,1.15,1.15,1.15-.29,1.44,1.73,0.58-.58,1.15,0.86v-0.58l-0.29-.86,2-.58L14.53,120l0.86-.29,0.86-.86-1.44-1.15,2-.86L18,116l0.58-3.74-2.88-1.15L16,109.68l-2.59-2-2.3-1.73-0.58,1.73-1.15-2.3-3.74-4-1.44-.58,0.29,1.15-0.58,1.73-1.44.58v2l-0.86-.58L1,106.22-3.9,108h-2.3l-1.73-.58-1.73,2-0.86,1.73,0.29,3.17v0.58l0.58,0.29L-3,116Z" style="fill:#fff"/></g></g><g id="a252"><g id="use254"><path id="_07464" data-name="07464" d="M25.18,115.44l1.44,1.15,1.44-.29,0.29,2,1.44,0.29,3.74,0.29-0.29-3.17-2-1.15,0.29-.58v-2.59l-3.46-2.3-4-.29-2.59,1.44,2.88,1.44,2,0.58,0.29,1.15Z" style="fill:#fff"/></g></g><g id="a256"><g id="use258"><path id="_07465" data-name="07465" d="M33.25,115.73l0.29,3.17,2.3,0.58L37,118.9h0.29L37,118.32v-2l2.3-2.88,1.73-.29v-0.86l-0.86-1.15-2-.29-0.86,1.73-2,1.15-0.86-.29Z" style="fill:#fff"/></g></g><g id="a260"><g id="use262"><path id="_07466" data-name="07466" d="M41.31,110L41,109.39l-1.15-2.3,0.86-2-0.86-.86H39l-2.3.29-1.44-.86-1.15,1.15-1.44-.58-0.86.86-0.86-.29-0.86-2.3H29.22l-0.29,1.44-2.3.58,1.73,1.73,0.86,1.44-1.15,1.44,3.46,2.3V114l-0.29.58,2,1.15,1.15-2.3,0.86,0.29,2-1.15,0.86-1.73,2,0.29L41,112.27Z" style="fill:#fff"/></g></g><g id="a264"><g id="use266"><path id="_07481" data-name="07481" d="M42.75,134.16l1.15,2.3,0.29-.86,1.73-.58,1.73-.86-1.15-2.59-2,.58L43.9,133.3l-0.29-.86,0.86-2L43,130.13,42.46,129l-1.73-1.15,0.58-3.46-0.86-.29L39,126.67l-1.15-1.44-0.29-.29-1.15.58-1.15.29,1.15,1.73H35L35.26,129l-0.29.86-2.3-.58-1.73,1.44v3.17H28.35l-2.59.86-0.58,2-1.73-1.44H22.59L22,136.75l1.44,2.3-0.86,1.44,0.86,1.73-0.86.86-0.29,1.73,2.59,1.73,0.86,0.29,1.44-.58,0.58-.86L28.06,144h2.88l1.15,0.86,1.73-.29,3.17-2.3,0.58-1.73,0.29-.86,2.88,2.59,0.58-1.15,0.86-.58-0.86-2L41.6,137l0.86-.29L41.6,135Z" style="fill:#fff"/></g></g><g id="a268"><g id="use270"><path id="_07482" data-name="07482" d="M39.58,160.94l2.88,0.29,0.86,1.44,1.15,0.58,0.86-.58,2,2.88L48.22,167l2-1.73,0.86-.86v-1.15l2.3-.86,2.3-2.88-2.88-1.73-0.29-2-0.86.29-1.44-.58L50,154H48.51l-0.58-1.44-0.86.29-0.58-1.73-2-3.74-2.3-.29,0.29,4.9-2.3,1.44-0.86-.58-2-1.73-2,.58-1.73-2-1.44-2-4.32-2.3-0.58.86,3.74,3.17,0.86,2.3,2,1.44,2.88,0.58,1.44,6.62Z" style="fill:#ed2224;stroke:#010101;stroke-linejoin:round;stroke-width:0.14399748000257px"/></g></g><g id="a272"><g id="use274"><path id="_07483" data-name="07483" d="M46.5,151.15l0.58,1.73,0.86-.29L48.51,154H50l0.29,1.44L51.68,156l0.86-.29,0.29,2,2.88,1.73,0.86-1.44,0.29-.86,3.46-.58,2.88-1.44-2.3-5.76L60,149.14l0.29-3.46-0.86-.86L54,143.66l-5.76-2.59-1.73-.86L49.09,137v-1.73l-1.44-1.15-1.73.86-1.73.58-0.29.86-1.15-2.3L41.6,135l0.86,1.73L41.6,137l-0.29,1.44,0.86,2-0.86.58-0.58,1.15-2.88-2.59-0.29.86L37,142.22l-3.17,2.3-1.73.29L30.94,144H28.06l-0.29,1.44,4.32,2.3,1.44,2,1.73,2,2-.58,2,1.73,0.86,0.58,2.3-1.44-0.29-4.9,2.3,0.29Z" style="fill:#fff"/></g></g><g id="a276"><g id="use278"><path id="_07484" data-name="07484" d="M48.22,141.07L54,143.66l5.47,1.15,0.86,0.86,2-1.15L62,141.94l-2-3.17,1.15-1.15-0.29-.29-1.44-1.15-0.29-6-0.29-1.44-1.73-1.44-1.44.58-1.44-1.44-0.58-1.44L52,124.08l-2.3,1.44-1.15-.29H47.65l-2.59.86v3.17l1.44,2.3,1.15,2.59,1.44,1.15V137l-2.59,3.17Z" style="fill:#fff"/></g></g><g id="a280"><g id="use282"><path id="_07501" data-name="07501" d="M47.36,120.62l1.15,4.61,1.15,0.29,2.3-1.44,1.15-1.44-0.86-1.15-0.58-1.15,2.3-.58,2-2.3L55.14,116l1.73-1.15v-1.44l-1.44-.86-0.29-1.73-0.86.29-2.59-2.59-2.59-1.44-2,1.44H44.48l-1.73.58-0.29,1.44L41.31,110,41,112.27v0.86l-1.73.29L37,116.3v2l0.29,0.58,1.73-.58,2.59,1.44,1.44-.58,2.88,1.73Z" style="fill:#fff"/></g></g><g id="a284"><g id="use286"><path id="_07502" data-name="07502" d="M51.68,108.53l2-4.32v-2l0.58-2.88-1.73.86h-2v3.46l-0.58.29-6.34-.58-0.29-.86L43,101.62l-3.74-.86,0.58,3.46,0.86,0.86-0.86,2,1.15,2.3L41.31,110l1.15,0.58,0.29-1.44,1.73-.58h2.59l2-1.44Z" style="fill:#fff"/></g></g><g id="a288"><g id="use290"><path id="_07503" data-name="07503" d="M65.22,113.42l-1.15-2.88,0.29-3.17,1.15-.86-2-3.46,0.58-2.3-1.15-1.44-1.73.58-1.15-2-1.15-1.15-2.59,1.15-1.73.29-0.29,1.15-0.58,2.88v2l-2,4.32,2.59,2.59,0.86-.29,0.29,1.73,1.44,0.86L58,113.71,59.74,112l1.73,0.29,0.86,1.44Z" style="fill:#fff"/></g></g><g id="a292"><g id="use294"><path id="_07504" data-name="07504" d="M47.65,125.23h0.86l-1.15-4.61-1.44.29L43,119.18l-1.44.58,0.58,0.86-0.86.58-3.74,3.74,0.29,0.29L39,126.67l1.44-2.59,0.86,0.29-0.58,3.46L42.46,129,43,130.13l1.44,0.29-0.86,2,0.29,0.86,0.58-1.15,2-.58-1.44-2.3V126.1Z" style="fill:#fff"/></g></g><g id="a296"><g id="use298"><path id="_07505" data-name="07505" d="M59.17,130.13l0.29,6,1.44,1.15,0.29,0.29,2.59-1.73v-1.44h2.3l0.86-4V129l2-.58-0.29-1.73,2-1.15-0.58-1.44,1.44-.58-0.29-.86L68.38,116l-0.86-2-0.86,1.73-1.44-2.3-2.88.29-0.86-1.44L59.74,112,58,113.71l-1.15-.29v1.44L55.14,116,56,117.46l-2,2.3-2.3.58,0.58,1.15,0.86,1.15L52,124.08l1.73,0.86,0.58,1.44,1.44,1.44,1.44-.58,1.73,1.44Z" style="fill:#fff"/></g></g><g id="a300"><g id="use302"><path id="_07521" data-name="07521" d="M47.94,73.68l-1.44-.86-0.86,1.73-2-.58-0.29,2.3H43.9l-0.29-1.15,1.15,0.29v1.15h0.29l1.44,0.58v1.73l-1.15-.29L46.21,80l2,0.29,0.86-.86L50,80.88l-0.58,1.44h1.15L51.39,80l2.88-.29L54,77.42,52.83,75.7h1.44L54,74h0.58l0.58-2.88-2.59-1.15,1.15-1.15-0.29-.86,1.15,2,0.58-.58,0.29,0.58,1.44-.86-2.3-.29,0.58-1.15-0.29-.86,1.73,0.58,0.58,1.44,1.73-1.73,0.58-2.3L58.88,63.6l-1.15-1.15H56.29l-1.15,1.44L54,63.31l-1.44,2.88-3.17.29,0.86,0.86L48.8,68.5l-0.58,2,1.15,1.15L48.8,73.39Z" style="fill:#fff"/></g></g><g id="a304" style="opacity:0.63"><g id="use306"><path id="_07522" data-name="07522" d="M64.06,100.75l-0.58,2.3,2,3.46,0.58,0.29,4-3.17,1.44-.29,1.73-1.15,0.29-4.61,1.15-1.44L74.14,94.7l-2.3-.29-1.73,2L69,95.86,67.81,92.4l1.44-2.88-0.86-2.59-3.74-1.44-1.15.58-2.3-1.73-0.86-1.15H59.17L56.58,87.5l1.73,2L59.46,91l-0.58.29L58.59,94.7l0.29,2L60,97.87l1.15,2,1.73-.58Z" style="fill:#86c140"/></g></g><g id="a308"><g id="use310"><path id="_07541" data-name="07541" d="M111.58,101l-1.44-.29h-5.76l-3.46.29-1.73-.86-1.44.86-1.73.29-0.86,1.15,0.58,1.73,2.88-.29,1.15,1.73,5.76,3.17,4.9,0.58,0.29-3.74,0.86-2.88h1.15l0.86-1.15-0.86,1.15V101h-1.15Z" style="fill:#e6e6e5;stroke:#fff;stroke-linejoin:round"/></g></g><g id="a312"><g id="use314"><path id="_07542" data-name="07542" d="M96,101.33l1.73-.29,1.44-.86,1.73,0.86,3.46-.29h5.76l1.44,0.29L113,90.38l1.44-.58h-1.15l-2.59.58v1.44l-6.91-2.88-0.86-1.44-2.59-.29-1.44,1.15-0.58,3.17,0.86,1.15-1.73.58-0.29,1.15L96,95.86l-1.44,2.59Z" style="fill:#e6e6e5;stroke:#fff;stroke-linejoin:round;stroke-width:0.5px"/></g></g><g id="a316"><g id="use318"><path id="_07543" data-name="07543" d="M103.81,88.94l6.91,2.88V90.38l2.59-.58,0.86-.29L113,88.94l0.58-2.88,0.58-4.32-1.44-.29-7.49-.58-1.44-.58-4.32,1.44L99.2,83.47l-0.58,1.15,1.73,2.59,2.59,0.29Z" style="fill:#e6e6e5;stroke:#fff;stroke-linejoin:round;stroke-width:0.5px"/></g></g><g id="a320"><g id="use322"><path id="_07544" data-name="07544" d="M84.51,93.55l2,1.73-1.15,2.3,1.44,1.15,0.58,1.15,2.88-.58,1.15-1.15,0.86,0.58h0.86l0.58-2.3,2.3-.58,1.15-1.44,0.29-1.15,1.73-.58-0.86-1.15,0.58-3.17,1.44-1.15-1.73-2.59,0.58-1.15,0.29-1.73-0.29-.29L93.73,80l-0.86.58-0.29,1.73-3.17-1.44-3.74.58L84.8,80.3H82.5l-4-2.88,0.26,1.24-0.5,1.25-0.5,2-1.57,1.27,1.07,1.73,0.66,4.89,1.15,2,1.44,1.44,2-.58Z" style="fill:#e6e6e5;stroke:#fff;stroke-linejoin:round;stroke-width:0.5px"/></g></g><g id="a324"><g id="use326"><path id="_07545" data-name="07545" d="M112.73,81.46l1.44,0.29-0.29-6.62,0.86-.58-0.58.58L113.89,74h-1.73l-1.73-1.15-1.15,2-4,.86-3.46-1.15L98,74.26,97.76,73.1,96,73.68l-1.44,1.44-1.73-.29L94,76.56l-0.29,2V80l5.47,1.44,0.29,0.29,4.32-1.44,1.44,0.58Z" style="fill:#e6e6e5;stroke:#fff;stroke-linejoin:round;stroke-width:0.5px"/></g></g><g id="a328"><g id="use330"><path id="_07546" data-name="07546" d="M101.79,74.54l3.46,1.15,4-.86,1.15-2L112.16,74h1.73l0.86,0.58-0.86-1.15,0.29-3.46V68.21l-0.58.86-1.73-1.44-1.73-.86-4,1.15-2,3.17-2.88.58-1.15-.58-2.59.58,0.29,1.44L98,74.26Z" style="fill:#e6e6e5;stroke:#fff;stroke-linejoin:round;stroke-width:0.5px"/></g></g><g id="a336"><g id="use338"><path id="_07548" data-name="07548" d="M83.65,67.34l0.86-.29L86,68.21l1.73-.58,1.44,1.15,1.44-.58,0.29,0.86,0.58-2.3-0.58-3.46,1.44,0.29,0.29-1.15L92,57.84l-2-.29L85.38,59l-1.15-1.15-2.59-.58-0.86.29V58.7L77,57.84l-3.74-.58L73,58.13l0.86,0.58,2,1.44-1.73,3.17,4,1.44,4.61,1.44Z" style="fill:#056b8d"/></g></g><g id="a340"><g id="use342"><path id="_07561" data-name="07561" d="M101.21,6V5.71l-1.15.58-0.58-.86H97.76V4.56L93.15,6.29l-0.29.29,0.58,4-0.58,1.15L92,12.63l0.58,1.15,4-.29,3.46,0.86,4.61-.86-1.15-1.73,0.58-.86-0.86.86-0.58-1.15Z" style="fill:#fff"/></g></g><g id="a344"><g id="use346"><path id="_07564" data-name="07564" d="M71.55,45.17L74.72,48,77,48.91l4.61,0.29,2.88-.29,1.15,1.15,2-1.44,0.58-1.73L89.69,46l0.58-1.44-0.58-1.44-0.86-2.3,0.58-2-1.15-.58,0.29-.86,0.86-2.88-1.73-.86,1.15-1.15,2.59-1.44-0.29-1.73-1.44-2-2.88-.58-4-1.44L81.06,27l-2.59.29L78.18,27,73,28.47l-1.73,4L70.4,34.23l-1.73,1.44v0.86l1.15-.29L71.26,38l-0.58,2Z" style="fill:#056b8d"/></g></g></g></g><path d="M78,160.92A78.9,78.9,0,0,1,104.68,13.56" style="fill:none;stroke:#34393a;stroke-linecap:round;stroke-miterlimit:10;stroke-width:0.639602694626327px;stroke-dasharray:2.741154432296753;opacity:0.5"/><path d="M169.47,92a53.74,53.74,0,0,0-10-31.33l1.12,33.79-4.08,29.33-31.69,21.39A54,54,0,0,0,169.47,92Z" style="fill:#fff;opacity:0.43"/><path d="M98.91,60.43l0.86,0.29,0.58-1.44,1.44-.29,4.61,1.73,3.17,1.44,3.17-.58,1.15-.29-0.56-6.09c-0.53,0-1.07,0-1.61,0A35.83,35.83,0,0,0,95.58,59l0.16,0.87Z" style="fill:none"/><path d="M83,49.06l-1.37.14L77,48.91l0.86,2-1.44,2-1.15-.29L75,53.23l-1.44,3.46-0.29.58,0.93,0.14A54.3,54.3,0,0,1,83,49.06Z" style="fill:#056b8d"/><path d="M113.89,61.3l-1.15.29-3.17.58-3.17-1.44L101.79,59l-1.44.29-0.58,1.44-0.86-.29-3.17-.58L95.58,59a35.9,35.9,0,0,0-3.21,1.83l0.2,1.63L92.29,63.6l-1.44-.29,0.58,3.46-0.58,2.3L92,69.94l0.29,2.3,0.58,2.59,1.73,0.29L96,73.68l1.73-.58-0.29-1.44,2.59-.58,1.15,0.58,2.88-.58,2-3.17,4-1.15,1.73,0.86,1.73,1.44,0.58-.86,0.58-2.3-0.58-.29,0-.66,0,0Z" style="fill:#e6e6e5;stroke:#fff;stroke-linejoin:round;stroke-width:0.5px"/><path d="M80.77,58.7V57.55l0.86-.29,2.59,0.58L85.38,59,90,57.55l2,0.29,0.37,3A35.9,35.9,0,0,1,95.58,59l-0.42-2.3L92,55.54l-0.86-3.46,0.29-2.3-1.73-.58-0.86-2-0.58-.29-0.58,1.73-2,1.44-1.15-1.15L83,49.06a54.3,54.3,0,0,0-8.79,8.34L77,57.84Z" style="fill:#056b8d"/><polygon points="114.1 64.91 114.13 64.96 113.89 61.3 114.1 64.91" style="fill:#056b8d"/><polygon points="114.1 64.91 114.13 64.96 113.89 61.3 114.1 64.91" style="fill:#fff;opacity:0.43"/><polygon points="113.11 89 114.14 82.16 114.14 81.95 113.02 88.94 113.11 89" style="fill:#fff;opacity:0.43"/><polygon points="114.56 74.62 113.97 73.75 114.06 70.75 114.14 68.83 114.83 65.99 114.74 65.94 113.97 69.04 113.97 70.66 113.89 73.97 114.47 74.54 113.89 75.12 114.14 80.98 114.14 75.16 114.56 74.62" style="fill:#fff;opacity:0.43"/><polygon points="114.43 89.82 114.46 89.81 113.11 89 113.11 89.03 114.43 89.82" style="fill:#fba919;opacity:0.30000000000000004"/><polygon points="114.74 65.94 114.75 65.91 114.22 65.09 114.26 65.7 114.74 65.94" style="fill:#fba919;opacity:0.30000000000000004"/><polygon points="114.17 81.75 114.14 80.98 114.14 81.95 114.17 81.75" style="fill:#fba919;opacity:0.30000000000000004"/><circle cx="113.06" cy="89.61" r="3.44" style="fill:#a31c49"/></g><circle cx="76.73" cy="77.08" r="75.51" style="opacity:0.12;fill:url(#New_Pattern_Swatch_3)"/><polygon points="113.31 38.83 112.16 39.41 112.16 39.41 113.31 38.83" style="fill:#86c140"/><path d="M113.39,55.33l-0.65-7.86-1.15-7.78,0.58-.29-0.29-1.15,1.44-.29-1.73.29-0.86-2.88V31.06l-4.9-2.59-3.74-.86-1.44,1.15-1.15-.86-0.86.29-3.74-.58-2.3,1.15-1.44.58,0.29,1.73L88.83,32.5l-1.15,1.15,1.73,0.86-0.86,2.88-0.29.86,1.15,0.58-0.58,2,0.86,2.3,0.58,1.44L89.69,46l-1.44.86,0.58,0.29,0.86,2,1.73,0.58-0.29,2.3L92,55.54l3.17,1.15,0.43,2.37a35.84,35.84,0,0,1,16-3.73C112.07,55.33,112.85,55.31,113.39,55.33Z" style="fill:#86c140;opacity:0.63"/><path d="M113.89,73.58l0.17-2.25,0.17-2.08,0.67-3.33-0.58-.08-0.26-.57,0.09-.26L114,61.41l-0.5-6.08h-0.09c-0.53,0-1.32,0-1.83,0a35.84,35.84,0,0,0-16,3.73C83.72,64.94,74.72,76.52,74.72,90.67c0,18.5,14.8,34.39,32.76,36.42l3-8.26,0.67-3.5-0.58-2.5-0.17-2.42,0.5-.92,0.33-2.08,0.67-4.17,1.25-.08,1-1.57-0.39-.43-0.83-.67-0.92-.17,1-9.42,1.75-1.08L113.14,89l-0.29.11,0.2-.45,1.08-6,0.08-1.06L114,75.79l0.92-1Z" style="fill:#a31c49;opacity:0.4"/><g style="opacity:0.5"><path d="M95.58,141.82l-1.26-.53" style="fill:none;stroke:#a31d4a;stroke-linecap:round;stroke-miterlimit:10;stroke-width:0.913718135180466px"/><path d="M91.82,140.13A53.92,53.92,0,0,1,108,38.47" style="fill:none;stroke:#a31d4a;stroke-linecap:round;stroke-miterlimit:10;stroke-width:0.913718135180466px;stroke-dasharray:2.76191782951355,2.76191782951355"/><path d="M109.36,38.29l1.36-.14" style="fill:none;stroke:#a31d4a;stroke-linecap:round;stroke-miterlimit:10;stroke-width:0.913718135180466px"/></g><text transform="translate(115.85 40.75) rotate(-2.58)" style="opacity:0.5;font-size:7px;fill:#34393a;font-family:ITC Avant Garde Gothic Std;font-weight:700">3<tspan x="4.54" y="0">0</tspan><tspan x="9.13" y="0">k</tspan><tspan x="13.42" y="0">m</tspan></text><text transform="translate(70.75 20.34) rotate(-24.22)" style="font-size:7px;fill:#34393a;font-family:ITC Avant Garde Gothic Std;font-weight:700">5<tspan x="4.57" y="0">0</tspan><tspan x="9.16" y="0">k</tspan><tspan x="13.45" y="0">m</tspan></text><text transform="matrix(1, -0.05, 0.05, 1, 116.76, 56.71)" style="opacity:0.5;font-size:7px;fill:#34393a;font-family:ITC Avant Garde Gothic Std;font-weight:700">2<tspan x="4.56" y="0">0</tspan><tspan x="9.14" y="0">k</tspan><tspan x="13.43" y="0">m</tspan></text></svg>