<svg id="Layer_1" data-name="Layer 1" xmlns="http://www.w3.org/2000/svg" width="0.64cm" height="0.64cm" viewBox="0 0 18 18"><title>question</title><path id="Imported-Layers" d="M8.85,0A8.85,8.85,0,1,0,17.7,8.85,8.85,8.85,0,0,0,8.85,0h0Zm0,16.64a1.75,1.75,0,1,1,0-3.49,1.69,1.69,0,0,1,1.76,1.74,1.65,1.65,0,0,1-1.76,1.76h0Zm2.3-7.44a3,3,0,0,0-1,1.37,0.7,0.7,0,0,0,.07.62,0.44,0.44,0,0,1,0,.44,0.44,0.44,0,0,1-.38.2H8a0.57,0.57,0,0,1-.47-0.19,1.54,1.54,0,0,1-.38-1.32A3.61,3.61,0,0,1,8.62,8,3.15,3.15,0,0,0,9.87,6,1.34,1.34,0,0,0,8.28,4.86a5.62,5.62,0,0,0-2.36.49l-0.19,0H5.59L5.35,5.16l0-.19V3.35a0.5,0.5,0,0,1,.26-0.49,7.38,7.38,0,0,1,3.2-.67c2.55,0,4.26,1.47,4.26,3.67,0,1.45-1.06,2.5-1.9,3.35h0Z" style="fill:#fff"/></svg>