<svg id="Layer_2" data-name="Layer 2" xmlns="http://www.w3.org/2000/svg" width="5.5cm" height="10.58cm" viewBox="0 0 155.79 299.78"><title>Vector Smart Object1</title><path d="M62.23,143.9l0.87,0.94-0.71.39L61.9,145l0.34-1.09h0ZM64,144l-0.61-.75,0.79-1.32,1.17-.14,0.32,1.53-0.79.75L64,144h0ZM2,299.13l-0.5-1.21-1.13,0L0,299.78H1.35L2,299.13H2Zm1.28-1.68,1.07-1.11,0.93,0.82L4.78,299l-1-.29-0.42-1.25h0Zm9.25-6.75-0.21,2.06,0.78,0.71,1.35,0.14,0.36-1.85-2.27-1.07h0ZM34,273.37l-0.78-2.63,1.85-1.28,0.28-.93L35,267.83l1.71-1,1-2,0.85,2L37.58,268l-0.07,1.7-2.42,1.49L35,273l-1,.36h0Zm9-19.93,1.28,1,0.32,1.6-0.57.43-1.42-1.18-0.1-1.21,0.5-.68h0Zm4.06-3.64-0.82-.64-1.6-.07-0.53-.43,0.68-1.39,1.71-.79,0.56-.14,0.33-.6,1.1-.07,0.6-.39,1.42-.39-1.1,2L47.65,248l-0.1,1.22-0.47.57h0ZM98.21,53.75l-0.82-1-0.21-1.49,1.57-1.43,1.07-.36-0.39,1.78-0.07,1.64-1.14.82h0Zm11.89,9.74-1.64-1-0.79-1.64,0.61-.43-0.61-3.53-1.21-3.39L105,52.11,103.31,51l-1.18,0-0.25-1.32,0.21-2.67-0.5-2,0.71-1.61,1.14-.64,0.32-.89,1.32-.25,0.85-2,0.71-1-0.22-.86-2-1.49-0.75-.11-0.57-.71,0.71-1.5,1.42-.32,3.09,1.71,3.31,0.54,1.11-.89,0.14-1.46,0.61-.64-0.61-1.43L112,31l-0.36-1-1.1-1.75L110,26.47l1.49-1.71,0.82-.11,0.21-.82-0.74-1.93-1-3,0.36-1.35-0.21-3.7-0.78-2.27-3.41-5.26L106.17,4,105.32,2.7l0.5-.64h0.93l1-1.21L107.52,0h2.2l0.71,1.49,3.2,2.63,2.7,0.57,1.35,2.63,4.48,4.41,2.49,1.78,0.79,1.42,1.91,0.43,1.71,1.85L132,18.62l2.42,0.29,1.92,1.85,1.49-.29,0.71,0.5,2.49-.36,3.18-2.17,1.61-2.11,0.39-1.75,0.47-.57,0.53,0.82v1.68l-1,2.92,0,2.68L146.78,23l2.39,1.5,1.64,2L151,28.08l-0.21,1h1.49l0.92-1.49,1.42-1.35,1.21-.14-0.64,1.42-0.93.57L154.08,30l-1.21.92-1.71.71-0.36,1.49-0.71,1.07-1.35.07L148,33.69l-1.35,1.07,0.14,1h-2.49l-1.91-.5-1.64.5-2.63,3.69-1,4-0.43,3.27,0.57,2.2L137,50.54,137.09,52l-1.71-.71-1-1.35-3.06-.79-3-1.56-2.63-2.35L124,43.36l-1.77.28-1.56-.35-0.79-.78L118,42.43l-2.2,1.64-2.34,3.2-1-.64L110,45.06l-1.35.14-1.28,1.14v1.92L108,49.82,110.08,51l2.14-.57,2.49,2.77,2.13,0.57h2.28l0.78,1.14-1.49,2-0.5,1.42-1.35-1.07-2.63-.14-1,.71,0.21,1.42-0.71,1.64-2.33,2.65h0Zm-3.2,54.61,0.1-1.89,0.61-1.14-0.43-.28-1.21.71-0.18-1.25,0.85-3.28,0.67-.68,0.32,1.39-0.13,1.43,1.35,0.43,0.32,1.07-0.5,2.18-1.07,1.07-0.71.25h0ZM34.19,184.9l1.07,0.82,0.64-.39-1.21-.82-0.57,0,0.07,0.36h0Zm-0.5,1.32L34,186.75l0.32-.46-0.64-.07h0Zm-1.18,1.18,0.79,0.36,0.39-.57-1.18.21h0Zm-1.21,1,0.21,0.89,1.14-.64-1.36-.25h0Zm-1.42,4.89-0.68-2.11,0.07-1.28,1-.5,0.15,1.18,1.14,0.6,0.72,1.36-1.14.93-1.28-.18h0Zm15,1.21-0.15-1.07,0.61-.64L46,193.17l-0.18,1.22-1,.1h0ZM43.2,197.6l0.79-.86L44.55,197l-0.71,1.18-0.64-.6h0Zm-0.75-5.1-0.75.93L42,195.31l0.71,1.36,0.92,0L44,195.06l-1.1-1.89,0-.6-0.43-.07h0Zm42.45-23.86-0.89-2,0-1.57L84.72,164l1-.18,0.39,1.25-0.24,1.42,0.32,0.82-0.29,1.25-1,0h0Zm-7-1.75,1.57-1.5,1.25,0.28-0.07,1-1.25.64-1.5-.39h0Zm-8.95,20.76L69.71,188l0.64-.71,1.21,0.43,0.93-.29-0.14-1.21-1.78-1.92,0.85-1.71,0.85-2.84,2.34-1.42,0.64-1.06,2.21,0.28,2.77,1.77L81,180.68l1.22-.57,0.92-3.48,2.2-2.06,0.22-1.28-0.71-.71-0.43-1.35-2.13-1.7-1.49-.07-1.42-1.07-2.56-.14-2.42,2v1.21l-0.92,1.42-1.78.57-1.49,1.06-0.92-.28-1.14-2.63-0.92.07-2.63,3-0.07,1.78-1.71,1.21-0.43,2,2.77,0.71,0.5,1.92-0.57.57v1l1.57,2.34,2.42,0.29-0.14,1.21h0ZM56.08,221.1l-1.21-1.5-1.25.25L53.16,221l1.11,2,1.68,0.32,0.5-.89-0.36-1.32h0Zm1.64-2.21-0.42-3.17,0.07-1.32,1.1,1L58.65,217l-0.46,1.32-0.47.53h0Zm-3.49-5.53,1.83-1.12,1.91-2.7-1.77-1.78-0.07-1.07,0.93-.43,1.42,0.43,0.85,0.64,0.5-2-0.07-3.13-0.57-1.56L59.33,195l-0.21-3,1.06-1.78L62,188.43l-0.42-1.49-1-.29-0.07-1.85-1.07-.21,0.36-1.28-3.25,0-0.46-.71,1.57-1,0.53-1.25-0.5-2.57-1.28-.79-1.57.29V178l-1.32,1-1.39-.22L50,176.41,50.32,175l3-1.53L56,173,59,174l1.5,0.68,0.28-.82-0.07-1.36,0.14-2-0.28-1.36,0.56-1.07,1.36-.11,0.79,1.18,1.28,0.07,1.64-.89,3.24-.6,3.1-1,2-.07L75.28,167l1.06-.5,0.07-.64,2-1.14,0.5-1.07,2.28-1.89,2.34-.78,3,0.53,1.71-.46L89,161.75v1.64l-1.46,2.1-0.42,1.68,0.89,0.6,0.21,1.78,0.14,1.86-0.29.75,0.5,1.86,2,0.89,2.74,2.57L95.19,178l1.21-.64,1.92-2.89,0.18-1.89,1.07-.68,0.29-1-0.39-1.32,1.28-2.39,1.71-.25H104l0.53-1-0.47-.71-0.42-2-3.52-1.53-0.47-1,0.79-2.64,1.13-1,0.75-.25-0.39.82,0.21,2.14,0.68,0.57,0.88-.61,0.43-.57,1.36,0.32,1,0.68,1-.32,0.68,0.18-0.39.82-1.78.46-0.22.5,0.64,0.32,1.5-.43,2.43-1.29,5,0.43,2.56-.29-0.71-.64-0.5-2,0.5-2.27,2.14-1.07,1.63,0.29,0.36,2-0.57,1.85,0.79,1.42L123,160l1.49-2.06-1.13-3.41,0.57-2.13,2.42-1.85,1.34-.07,0.43-.92-0.93-1.14,0.5-2.34,1.21-.78,1.85,0.36,0.42,1.06-0.93,1.35-0.5,2.7,0.57,5.62,0.92,0.43,1.28-.85,0.85-1.85L135,154l1.85-2,0.71-2.56-0.42-1.63,2.13-2L139,144.5l-1.07-1-2.27-3.12L134.89,138l-0.64-4.76,0.71-5.54L135.1,124l-1.71-6.9L131,113.8l-0.21-2.56,0.56-3.2,3.06-1.42h1.49l0.79,1.35,0.56-.71-0.5-2.27-0.36-1.49-0.64-.77-0.5-2,0.14-1,0-1.5,0.71-1.21,0-.61,0.21-1.53-0.56-.86-0.14-2.44L136,90.41,135.17,89l-0.57-3.84L132.83,82h-1l-1.06-.57-0.22-4.19-1.85-1.71-4-4.5-1.1-2L122.82,66l-0.22-3,0.14-1-1.14.71-0.89.11-0.47-.57-1.74-.79-1-.11L117.69,62l-1,2.43,0,1.67,0.85,0.82,0.93-.42,2.21-2,1,2.46L121,68.73l-1.17.75-1.28-1h-0.46l0.6,2.32-0.89.93-1.39-.53-0.32-1.71-0.32-2-0.61-1-1.21.4-1.07-.61-0.39,1.57,0.71,2.89,0.07,2-1.17.46L110.92,75l0,1.1,2.46,2.5,0.82,1.5-0.86,2.67-1.31.86-1.53-.32-0.32,1.07,1.42,1.82,1.5-.36,1.29-1.44,1.91,4.34L117,93.47l-0.42,2.63,0.21,4.69-1.7,6.9,0.5,2.63-0.79,3-2.41,1.28-1.07,2.91,0.14,3.27-1.21,1.92-0.36,2-2.36,2.23-4.7,2.82-1.85.53-0.93,1.89-2.39-1.35-2.31-2.85,0.07-1.21,1-.5,1-1.82-0.18-1,1.21-1.25-0.1-.5-2.28.53-1.63,1.68-2.11.82-0.39,1.89,1.39,2.35,0.28,4.64-0.28,2.25-2.28,2.35,0,1.29-0.82.93L90,143.81l0.85,1L91,146.2l-0.64.53,0.42,0.57-0.5,1.21-1,.11L90,149.52l-1.5.61-1-.79L86,150.41l-0.86-.32L84.79,148l-0.57-.25-1.28.93-1.21,0-0.61-.43-4.27,1.5-2.25.86-2.24.79-2.53.18-2.42.75-0.85-.54-2.07.25-3.7,2.57-0.68,2.32-1.36.93-0.32,1.43-2.71,3.07-1.67.64-1.43,2-0.42,1.28-1.46,1.5-2.63.53-0.93,1.35,0.64,3.11,1,0.53,0.32,1.1-0.61,1.07-1.64.11-2.06,1.61L44.3,178.3l-1.28,1-1.85,2-0.71,1.53-1.6,0-1.78,1H38L38.89,184l0.67,1.75L40.42,188l-0.67.64-0.32-1.53L38.6,186l-0.47,1.57,0.5,1.78,1.25,0.53L40.1,191l-0.64,1.25,1-.54,0.68-1.32,1.49-.5,1,0.36L42.8,191l0.71,0.53L45,191l-0.17-1.82-1.07-1-1.78.46,0.1-.79,0.5-.86-0.42-1.5L43,184.5l1.64,0.64,1.71,2.92,0.25,2.18,0.82,1,0.14,3.35-1.42,3.14-1.71.18L44.87,199l1.49,2.61L47,205,48.64,207l0,1.68-0.82,1L49,211.22,50.6,211l1.31,0.79,0.64-.75v-1l-1.46-2.25v-3.17l0.89-1,1,0.82-0.56.86,0,0.93,1.5,1.57,0.6,2.64L54,212Z" style="fill:#fff;fill-rule:evenodd"/><circle cx="134.56" cy="118.98" r="5.2" style="fill:#fff"/><circle cx="134.56" cy="118.98" r="3.13" style="fill:#a31c49"/><path d="M134.56,124.92a5.93,5.93,0,1,1,5.93-5.93A5.94,5.94,0,0,1,134.56,124.92Zm0-11.08A5.14,5.14,0,1,0,139.7,119,5.15,5.15,0,0,0,134.56,113.84Z" style="fill:#a31c49"/><circle cx="123.13" cy="146.18" r="4.2" style="fill:#fff"/><circle cx="123.13" cy="146.18" r="2.43" style="fill:#a31c49"/><path d="M123.13,150.78a4.6,4.6,0,1,1,4.6-4.6A4.61,4.61,0,0,1,123.13,150.78Zm0-8.59a4,4,0,1,0,4,4A4,4,0,0,0,123.13,142.19Z" style="fill:#a31c49"/><polygon points="134.86 92.13 134.86 105.93 134.86 112.03 130.06 105.93 96.51 105.93 96.51 92.13 134.86 92.13" style="fill:#a31c49"/><path d="M102.53,96.76h2v0.38H103V98.5h1.53v0.39H103v1.74h-0.43V96.76Z" style="fill:#fff"/><path d="M107.72,100.63h-0.37v-0.5a1,1,0,0,1-1,.58,1.14,1.14,0,0,1-1.19-1.3v-1.6h0.38v1.52a0.92,0.92,0,1,0,1.83.07V97.82h0.39v2.82Z" style="fill:#fff"/><path d="M108.61,96.76H109V99l1.27-1.16h0.48l-1.36,1.24,1.42,1.58h-0.46L109,99.14v1.5h-0.39V96.76Z" style="fill:#fff"/><path d="M113.94,100.63h-0.37v-0.5a1,1,0,0,1-1,.58,1.14,1.14,0,0,1-1.19-1.3v-1.6h0.38v1.52a0.92,0.92,0,1,0,1.83.07V97.82h0.39v2.82Z" style="fill:#fff"/><path d="M116.09,98.52a0.48,0.48,0,0,0-1,0,0.58,0.58,0,0,0,.55.48,0.89,0.89,0,0,1,.87.83,0.88,0.88,0,0,1-.93.9,0.9,0.9,0,0,1-1-.88H115a0.56,0.56,0,0,0,.59.56,0.52,0.52,0,0,0,.54-0.53c0-.32-0.22-0.45-0.71-0.59a0.79,0.79,0,0,1-.73-0.73,0.81,0.81,0,0,1,.88-0.81,0.8,0.8,0,0,1,.86.78h-0.38Z" style="fill:#fff"/><path d="M117.3,96.76h0.39v1.52a1.06,1.06,0,0,1,1-.54,1.1,1.1,0,0,1,.93.39,1.57,1.57,0,0,1,.27,1v1.52h-0.38v-1.5a1.2,1.2,0,0,0-.2-0.74,0.85,0.85,0,0,0-.71-0.29,0.88,0.88,0,0,0-.69.28,1,1,0,0,0-.23.65v1.6H117.3V96.76Z" style="fill:#fff"/><path d="M120.77,96.76h0.39V97.3h-0.39V96.76Zm0,1.06h0.39v2.82h-0.39V97.82Z" style="fill:#fff"/><path d="M122,97.82h0.37v0.44a1,1,0,0,1,.89-0.52,1,1,0,0,1,.77.32,1.46,1.46,0,0,1,.18.29,1.27,1.27,0,0,1,.2-0.3,1.06,1.06,0,0,1,.77-0.31A1,1,0,0,1,126,98a1.34,1.34,0,0,1,.32,1v1.56h-0.39V99.08a1.11,1.11,0,0,0-.21-0.75,0.67,0.67,0,0,0-.56-0.24,0.74,0.74,0,0,0-.62.29,1,1,0,0,0-.17.68v1.56H124V99.07a1.08,1.08,0,0,0-.15-0.67,0.73,0.73,0,0,0-.62-0.3,0.69,0.69,0,0,0-.6.29,1.09,1.09,0,0,0-.19.67v1.57H122V97.82Z" style="fill:#fff"/><path d="M130,100.63h-0.39v-0.58a1.25,1.25,0,0,1-1.15.66,1.49,1.49,0,0,1,0-3,1.24,1.24,0,0,1,1.15.67V97.82H130v2.82Zm-2.62-1.4a1.1,1.1,0,0,0,1.13,1.12,1.05,1.05,0,0,0,1-.69,1.07,1.07,0,0,0,.09-0.44,1,1,0,0,0-.09-0.45,1.09,1.09,0,0,0-1-.68,1.1,1.1,0,0,0-1.12,1.13h0Z" style="fill:#fff"/><polygon points="123.41 172.32 123.41 158.52 123.41 152.41 128.2 158.52 150.23 158.52 150.23 172.32 123.41 172.32" style="fill:#a31c49"/><path d="M130,163.64h-1v-0.38h2.34v0.38h-1v3.49H130v-3.49Z" style="fill:#fff"/><path d="M131.52,165.72A1.49,1.49,0,1,1,133,167.2a1.46,1.46,0,0,1-1.49-1.49h0Zm0.38,0A1.11,1.11,0,1,0,133,164.6a1.1,1.1,0,0,0-1.11,1.13h0Z" style="fill:#fff"/><path d="M135.23,163.26h0.39v2.21l1.27-1.16h0.48L136,165.55l1.42,1.58H137l-1.35-1.5v1.5h-0.39v-3.87Z" style="fill:#fff"/><path d="M138.87,167.08l-1.09-2.76h0.41l0.88,2.28,0.91-2.28h0.42l-1.61,3.88h-0.42Z" style="fill:#fff"/><path d="M140.66,165.72a1.49,1.49,0,1,1,1.49,1.49,1.46,1.46,0,0,1-1.49-1.49h0Zm0.38,0a1.11,1.11,0,1,0,1.11-1.13,1.1,1.1,0,0,0-1.11,1.13h0Z" style="fill:#fff"/></svg>